<mxfile host="app.diagrams.net" agent="Mozilla/5.0 (Windows NT 10.0; Win64; x64) AppleWebKit/537.36 (KHTML, like Gecko) Chrome/136.0.0.0 Safari/537.36" version="27.1.1">
  <diagram name="Use Case Diagram" id="x7ghVOHTN2ne6XQ0ueTJ">
    <mxGraphModel grid="1" page="1" gridSize="10" guides="1" tooltips="1" connect="1" arrows="1" fold="1" pageScale="1" pageWidth="850" pageHeight="1100" math="0" shadow="0">
      <root>
        <mxCell id="0" />
        <mxCell id="1" parent="0" />
        <mxCell id="iPtHKylNL2sxlNdy4_Nk-71" value="" style="rounded=1;whiteSpace=wrap;html=1;dashed=1;fillColor=#fff2cc;strokeColor=#d6b656;" vertex="1" parent="1">
          <mxGeometry x="244.5" y="390" width="785.5" height="110" as="geometry" />
        </mxCell>
        <mxCell id="iPtHKylNL2sxlNdy4_Nk-1" value="" style="rounded=1;whiteSpace=wrap;html=1;dashed=1;dashPattern=8 8;fillColor=#f8cecc;strokeColor=#b85450;" vertex="1" parent="1">
          <mxGeometry x="244.5" y="520" width="785.5" height="540" as="geometry" />
        </mxCell>
        <mxCell id="iPtHKylNL2sxlNdy4_Nk-3" value="" style="verticalLabelPosition=bottom;verticalAlign=top;html=1;shadow=0;dashed=0;strokeWidth=1;shape=mxgraph.android.phone2;strokeColor=#6c8ebf;fillColor=#dae8fc;" vertex="1" parent="1">
          <mxGeometry x="537.13" y="60" width="150.25" height="290" as="geometry" />
        </mxCell>
        <mxCell id="iPtHKylNL2sxlNdy4_Nk-4" value="Mobile Application" style="text;html=1;align=center;verticalAlign=middle;whiteSpace=wrap;rounded=0;" vertex="1" parent="1">
          <mxGeometry x="559.14" y="86" width="106.75" height="30" as="geometry" />
        </mxCell>
        <mxCell id="iPtHKylNL2sxlNdy4_Nk-5" value="" style="rounded=1;whiteSpace=wrap;html=1;fillColor=#dae8fc;strokeColor=#6c8ebf;" vertex="1" parent="1">
          <mxGeometry x="680" y="430" width="150" height="50" as="geometry" />
        </mxCell>
        <mxCell id="iPtHKylNL2sxlNdy4_Nk-6" value="localtonet" style="text;html=1;align=center;verticalAlign=middle;whiteSpace=wrap;rounded=0;" vertex="1" parent="1">
          <mxGeometry x="728.75" y="440" width="60" height="30" as="geometry" />
        </mxCell>
        <mxCell id="iPtHKylNL2sxlNdy4_Nk-8" value="" style="rounded=1;whiteSpace=wrap;html=1;fillColor=#dae8fc;strokeColor=#6c8ebf;" vertex="1" parent="1">
          <mxGeometry x="390.75" y="430" width="150" height="50" as="geometry" />
        </mxCell>
        <mxCell id="iPtHKylNL2sxlNdy4_Nk-9" value="ngrok" style="text;html=1;align=center;verticalAlign=middle;whiteSpace=wrap;rounded=0;" vertex="1" parent="1">
          <mxGeometry x="438" y="440" width="60" height="30" as="geometry" />
        </mxCell>
        <mxCell id="iPtHKylNL2sxlNdy4_Nk-15" value="" style="shape=cylinder3;whiteSpace=wrap;html=1;boundedLbl=1;backgroundOutline=1;size=15;" vertex="1" parent="1">
          <mxGeometry x="443.5" y="912.5" width="152" height="120" as="geometry" />
        </mxCell>
        <mxCell id="iPtHKylNL2sxlNdy4_Nk-21" value="" style="endArrow=classic;html=1;rounded=0;entryX=0.547;entryY=0.04;entryDx=0;entryDy=0;entryPerimeter=0;exitX=0.5;exitY=1;exitDx=0;exitDy=0;" edge="1" parent="1" source="iPtHKylNL2sxlNdy4_Nk-22" target="iPtHKylNL2sxlNdy4_Nk-5">
          <mxGeometry width="50" height="50" relative="1" as="geometry">
            <mxPoint x="648" y="350" as="sourcePoint" />
            <mxPoint x="460" y="547.5" as="targetPoint" />
          </mxGeometry>
        </mxCell>
        <mxCell id="iPtHKylNL2sxlNdy4_Nk-22" value="" style="rounded=1;whiteSpace=wrap;html=1;" vertex="1" parent="1">
          <mxGeometry x="552.51" y="178" width="120" height="140" as="geometry" />
        </mxCell>
        <mxCell id="iPtHKylNL2sxlNdy4_Nk-24" value="" style="shape=image;imageAspect=0;aspect=fixed;verticalLabelPosition=bottom;verticalAlign=top;image=data:image/png,iVBORw0KGgoAAAANSUhEUgAAAOEAAADhCAMAAAAJbSJIAAAA+VBMVEX///+IFxr8/PyBAACAAAD5+fmEAAD09PSIFRj19fXu7u6HExbr6+vx8fHo6OiGDxPf39/T09OFCA3i4uLX19e9vb2IAAjIyMi3t7fFxcV7AACzs7OqqqqFAwrPq6z06+uho6O+jY7m09OeT1Ht3t+UNzmnYWK4g4TFm5yWPD7XurrfyMjLpaby5+eramuxdXaQKy3gycmNISSfUVKYm5uXREbBk5SOJymucHFxAACOVFWKMTOMVleRf3+cRUetZ2jOuruxg4TErKy3mJmcWFqxkZGfZmeqh4ihdHWxoqLGl5imkZKZbG2NPD6PRkiflpePYGGRcXKThIVpzCGAAAAVeklEQVR4nO2da1vbuBKAE0tWlBgQGAhgcEIS5+ZcSbgtFNrtdrunu1Ba/v+POZIdcrNkS3JC6fMwX9pSYvvNjGZGo5GcybzLu7zLu7zLu7zLu7zLu7zL7y/G5I9c2at2fL9Exfc7napXyBsLv/EbyuTJe51Ss39xVYQQAPQigP7LHtauK6Wz8vwv/z5isCfOV0vNewQRQC6xcHZZsEVc+n8QjSu+Z7x86LcQ9qS5amtMEAAkAhYltSln9mO3av4ekOwZe6XGCCAbR/UmpLRshIbXfvmtQ7Kn81o1BGxLGm6O0gXFRukNQ7Ln2uzWACLyuotQUlU2fPNNeh7G12lQPG26KSRAg+pbU6RBH2ezOwSuvvYWIAG6p4p8O4yMr1fJyvhNaUYCht3NN8IY8A0Q0vAtsUIQqbwJxpAPrMY8FwWj4mXuVzPS2xeaAK2DL2RELdP4hYz03mbXXRtfwAiufONXMbIbd+prsc95IWBc/TWmSvnKfRX/iTHNtalYCtlcIDaq5F9fjeyOpSKQx3Pp1IkM2+37+qiIoMPSVvkPo2HntdVIAXs1qPCM2Y9+efbxsudXagjKJwgEXm++phrZCPRdV5qPUI1RHdYHJW/uIfP+wJa3cjQ8ez01Ur7NgYKHsT6WKrUsneEDCK7oPDA/gyzVoSwjAZevFTgM06gOkTQfFdCmw8grDeo2gNBxQK0ye1D/HtpyV8FgXH4VRMPMlFRnEATed9hnTa9TuqxUKqX5C1bHjiSjmz3LmOtGpDHeVLHQGWPdF17Ua0g6LQu0jDUjUsCNmpKFzjGO/u2JrutLfmkYDPLmOi2VfoHeUN6HLokFUKMjQoSSF0HjwhoRKeAZlhwzXME2JGf8a1dkswfU7q0NkQL6aj6GIBjIJIOh81pXOBobsqPbxp65nsHIABXSGPoosF7xq57nVUuVsU1B0X035voDCCYFSFCMvQ1B1bUgUifalc9DGWC/Ov/5stczBZfOecEfvVaN0IAJnVIzPtexUGcNiBSwpRYlil3Jh+hh53LyV7PnVc/OzIxXj3XYFvq0csRAg4phEIzkGKsOHC3HEaMRay+r1yIdg5/V47wFcNzAm0qH534aCVpc7VikGpQOWIsPAkfV5MvzpZ4wFleJSAE7utUYAnURq/HfKcmuLi5SQA9rl0Pdhu59x/HJhd3eyK8G0TDzW0P9TMYayj+FEYhpBn9kKgkJMPqSW4kW6R1ztaI2YBajcvJNqPjBHDmUcCk8cQ0LDFYyFNl0SW82MRHZgdhqDq6vr/v9RqNxjwNJvDTorgCRApaUUpnoY5SS77IsstkTOsunRaSDsJqqqG0hp6J8V0829pLRVkpvYxjUy6RYNSMg2+zIjcM5yceHwnlx03obI5+/1h+EFhyKSxeB9Kp+t0LHHxt8/f71YMBWf8tthUk2aKUaitRGP+sPQkQSRmAfOKyNCLiuzcSlguCgglRCE0bVFEORAnraC9cYDkSzpYmcOZxrY9W1LFIvaA9FOghzNd1Qj5NdqF6qGxHU1FYiVaHanHce0BXVnGZiZleyMo6BbsiggNvx5YS42w5LnapXzsfeobUaJZL2ph6ikd9saFcOqQeA0GG1mXqj4otA71MlS1NBlzkdQpqOfkqXzASCCWvMa/AzN/N+JUvI1J9qIFLADfnAm/QIrvORf5umUvVOJG5jM69D2FqNDbEnAANRYuMrRT+BYPRJWYkUcFdhHTpWXKfvie/Ua69gLJB2IadKmM+lmzPNBPSFCzKhVGD6qIG6m2pKNMzNvRX1ybiVMpVer9oRKrKTTa1GK7uhZqc0UlzrR4pFcYMpOwAQDkS3K8suIIoF/aWkRKrCnRW2Ok3m6xjcCydSXen1fIFYoy0VJa5ShfNiI8HaWiZTzaYc9qilEDFWOAqXBDv/Cm+a0lKt4Za8nRr5wp8ri4VLAhvCOVU3nU9Fn6UJqQq3s2tryENDoU+tFtNEf3Ih7U6pCi/XpUL2JEBY2ijXU4QNmthIKpGqcGO46p7mhUdxmqJ7m7UUiHZDMrGhKvy8MhVi4rJlXVbIZlMpN6xjx4SN+HXD+HuhHTklmrnClxVkw1QsF6L7Qdev9nKmWe5V/Va/DgBLd11LGDZSIKJKQSZgGGZhJaEC23B07Ud01Ss1WEeiBYVrpxf6DTtXGzJKpEb61wqM1IVjXxAXyqU2tDG8FjyLeaWd3qBPhWRC6me2LlLPfO3YCVMmc1aDBNQFcw7pmn5E3MFGsq+hRtpJq0ILjmP5AsY6sJFgVaqrW6HCeDtZiUZu45+0GSJOqOWH8i9wocDfaFdp0edEX5PeSDHs52QAqTVSx8qvqiYs4YvFvabJaQJhvpBu3oTFTjJ6swYEfC1+1PSn1jDRTKmRpvKkllrrRRMC7u9XHc37o08bCWZKjTRNuCckoSazLBWIuJ9oa44U9OfWZiwhC/cjfSMlWUVAhoh5FXHdlXVysRVvpkZ+45O+kWKUGCSi0oc1zk97mjERk52NeMLNLf25L4bJ602cW9Yhb6Fft96OPm/FBX1qpFs17VgBWxqAVF0Ozzs1Nb/o4p+x8cIwN/a095q7Yy1AtshWj/7Q1x2I97uFOMKc/jCU7X3iSJ1j3p4mISZ7cfGCxgrtaAjkI/2ydGBU/WXdvAN9ihuIdBjq1kkJx9KkpQ0i+jd1gxb6KyYi0mG4qxtqYcymn9Jls3npx0SSrhP5tKFbKnKvYwYijYbbmsZB2oJr9ipFJ1y4cFBTBOlxalN1TUJysSuOiEZuS9fRQH5vSb4JZ18ZRlCwUGqiaNTXJcTFbbGrofFes8qGi1zDOBstpiYYEX5SULcjz6Jd0AQHYldjFnb/1iN0r3nX86MLShZf2Rco8iza6THNakSuhmY0uwM9V8rN13xuVxcXMUpY1m43Q3/tirIa6kq39aZOGHK+tB4PkP0ux9+0h8s/0Y34LG8TOlMjv7WtFyxsXsJ2L/iySIQmYxb7yz/qaBO6X7dFzpS6Us3JIbqMXk3clxe1U8+JXEC7oy5LxkJnSgl39KyfV1C6F1qDNVr+3ZITuYCmQ2CE7b0tEeHm7oGeKwXRoeXFlMsifukimrXp92NZV3uicGFu7uoFfOxGCxGtGCtzl5oyvGjmndcv+GFrJ4ZQL+DjbPRicU55OUtvRtPSszSLbAeicEHDoR6hFfWOsVaG0YLOy+gq8pUn7QiKE3QkJtzWmx1y0m4zthFgcdhVnGgSkKYtEn16DcJybDFkwTOVnYvox3UrwkwooSDk05RGLy3lzH7LnOM8Z7Kgw7ETLbLqR8MsS0y3+YSGNiFnHJqjmKkBtuceoPsHJ1FNtTgUS6i3sMbzpXHp37xVV51IwhYfTJNlDTpc8o2BxNV75uJh2b7nPIpusTQUMWFel5CX08RtF5nlNLnRiLPYaKY4HzQbT7inSxgtQ8U8pTU16h4a8coacfmQhKBPYivd06yW8uYWl8LHnK6hdmCdBxjrpWSeZj+G8Jvm6TqcwWSI9i2Sq5fvwGlw08d/U/ZEo6MYQt1CFG+O7/H7RfFkHaZaF/Saale7X25QFBGyiK9dTOTVaarczubQRr2Pf9QF1dMUWzoDwfhASFjY3te8Or/W5g2j65zBYuFZw0GizXtnaRI2JtZwJ4bwSHMXCUZ8w68sn20KWhmvNXLEp56YV2kbP8njzrY48z640hwDov2U7HzauW+NjCtDxxn74sWhtDZK7/FlRzi32NzeedRMCIXrFplyqYZguLkJ2wjCWjeum6GUfkui/TWGcHdHu9UkZu0pU+60GsRCENQuz+KXUasr2K3n/m9nV1DFMCjhg26JK3790B/CbCW5l6i3ihOl0d/CShSrJup37cWsAXeuHOFRdPNSzq5iwyP6Jq4m5rZ0k5osK7gJDNAbJzSbTgFTnBEzT7gvXMk38lt7h/quzP3Cveqlcy/X6laur2QjEgv4wqo+TdsOUhyNz+tKLLcdyQ4GL7ua9nlyIQz4bHVt+0A3XGRnGeecdBxRq/Oy+FDqhSbJ4n4VBvwg5O98TfFNWvbSeOs6wi2HS3LpwKbfXsU2D/Q3DYfCjImGC805cCj2VW/xsYU71RalPHYu6JdjpNkxMyX8Jizqh+HiW6q5iz1/eN4lp9LLlRZ4SfpSbCeZCMb7wmAROtP9dLvWyKz/nlsm5Ig/+qM/DTSpEcmF2JWG1baD7+nG+7QVwf9DxokapZFTn3dQ45Rj0f2fcHbIhDnT/6U4uYzJpFe/B4Ub1GZSrthOdlHTZppDm7LBMBQ2KmRCV6Of1UxvgktGecjr/F2Uap9OOirLT6PbHRwKzh7GOJrQ1ezrThFnYsERspN6Mf0ahJB3GEGqCRT5fhTbfclKpgdfUpkJe5caQFZCQ7TZHVG+AT9d/ZjCiorBMIwhZANRf3qBbQCH15VuqYRiI703gACOWqJTa+JX5uIlYRiGA/FYu1YDvpRC2yxBsY0a/hgCTOJyAe2dXVnrdj92GIYR8UgrXmCEmi+DquwIe9rLrSFk3yAm7ZgZsfYKsP2VDsP43QgsIv6jES/IfGPlNRBcvtdEYDKLxwTBe1HlQ9vZoG/xwzATRsRj9cQNDOcU4glUaMw3m4ZfS1ugR82VC3y1H5N2T56CxgtlM8WLp5b0AXeoV0k00hHBsZGaq0/uw1FMUjohZPFC0Ztai8XSMj+b8flnQkDuIbyanQoSRhqcGHFwqHRMm4UWY1/X4Zme8MB6wN2IorWLlHnS+FgRIDIzVama4uUdhPec/qG43cuAFzu19q4V/0k20nCt++A/BTNdbiss886EEC4mBlfguFSd7BST42QjDcx0d2f/VtqXRbZz+dFOyrgFYfZkNie70VigsW9YuE8y0knQl/Y1xYijqHDymYRFT8BxqOp7d3DxW1K4nxAGIVFygoFJBKfBWaNJWLe2stEvXj1ekO/7rClR4mAMc5NOoSTnwZzGe8xZLE06xpOzrNNRTmvQf0fCBYtFYSHx6CS2L+1FeMsxnITGS4pubrQvqqeqQ+v2UMbPBISBr/kqMw4WVWh4ndb1FUcfiX140c7vTFl1hoP+SZpWzD1poESJO2D0ckH2zrE2AQC4FuckiMSudM7uTEPRmSqo8EWJEiuJk/60st8fAVAk4THxnE29yVuLOW1jiju7mArl/EyAyALGSfIaDWv2Kpe+IOjOPQ1nS0zyJi3O16I2RwxUmHScwhyhWdg92H9IdKewWvoCwZI5cwiTDY5DqLZ7B/2nosJwrfToOHmSBpbx+ITJ6uBZqQoheVRS4ctI1CtJcdSR8LIRvqdR2X+I3SfqSNUOv2Tu9FhrLZFTR2xqRAul/YfuB0UVvijxP53jvDm9Q4lTITs6DVbp38PZkyDnVjuElk6ijg4/aKyso2ga3UvKaTjfisr+Q/SPQiycEgbZ6YnGZj2OPjIX8QORdxyDwqkR5Psxy0iTp03LiHSKcagyFZ6INYp+lwnvCHA5h33LbwvCxSe1SDElDCKGRhcYbxesaD9p+Ii8T8gfsVJ8ODyIXY0RIxaoszlRn2vz2hSrcefLAk7Zw5ROvMnjiWqkmCKyig21U9WhyBuImUuxnZIs5+HOZKeHGD9puJkJIXU21E5/qNb4sc07r60v8hzY4a2xSe8pQXfUzSie5T2HGNipctznnzEr6EEg/BPbZC3HvTnWtdFM8BYWZqdPqq8S4e5dZ+8Z5Ty1a3FXLmRrGOSWDkJNGw0QQ3/6rDgUub6RSgktmx6GY/5CY0POhWPydEzTtZz+G5/C5O34QTEq8jv3aSZ27cx9WdiGSLC8Jrl3DQeDUNtGQ8R8YZsOxRvF7I2zZzKUXpNAELzdiXV8Cxun+3L3Qw/HWrF+gdDMsaF4+qgW+Dm1s6lUu4Mv43G/GT2Ad/YrcqezFz8EgzDti9fCkHGq2Mej/WrOQOQWnuzvJ2zOpBkoIoiKDjXVuVhya9zk9jRMuFMCvkTF4ye1uSJvKUJS5GaGZHSa2su8EE68zbNSiVbvDMVAYrP0KeDV+fHRzq5+JFxANGngV0a0RK37SZJY8ggAR0/Uy+ym9TIzxMChntwpIdp1rZtLDcIQkLrRVb3zmOU2DFFNi5wTypJF6v30E8D0bpSDWFTxqIC/AWNlgCvTYIi4GSIq7dsBNcXaSUkG0L49X7UGZ4j7J0+3KtkNGCqdK1yRASx+XwvgDPH8USVHtZF80Mg1JJwMLt6crgdwhnh6ozKZwrAp+ST+SGIGg9HD6fGaACdBg2Y3pw8quwQxGEptzLuWeVEQIXcnNNCv2MksI9I0/HmktC6U/KYEowVlqkHu7dPJIctk1gQYINIc9ej45OlRKUu1YT9urpFrYZkOKIxuzulsYm9lmQwfMV/Y3aNR4/TBVYmM2AUXJcEbE6oDG8hci+Cf1MccBMn22gBZGs4mU8zfPKtt+MQEoEZ32VpznWYdSnWw4eLjU+Bj1gw4QWSD8eT8RnFbMuvkL46bXb/qeV71zL+8rgOI5EY0cR9O2RBckxNdYqT+JrTU56HyhlNKyV785DgQgpeXP0l8ClEFMgtdo49ZRMwXmKUen57/sFf1ttk4PjtLRyALEmu30CnixFKZGr8r5eI6QuybiQKZhb4KYICYYz51//jk9G6o/WZrGbGKj88TBb6OhU4ZzUCNzKme/8ym2P+dxDe8O6UulCnwtSx0isjUODHV84eRUnSU57v9eR660ECBrwqYCdW4MTHV84erVY9HTKZ8rzoCFxCpU6WmOmH8eSvt/KX47Mc7xhca6C9Q4JQxMNWQ8e67vaL3XFs2uXme8P0aA51jNOcZn3+MiqkViW10+/B0OuX7NQa6yLgZMDKfQxV5k00DadnFqw9MfceHR2+DLxOYasC4d3AUKPL8581V0ZZqE19SHrHd4Ye7c8a3T/1LwPcGADMhI7XV3T1qrIcB5N2HW+wSBUps2W728cdzgEfNk/rPkO9Xs72IwXwOjR2BIg9PGOTTzw+3lmsnY2KLuIzu7un89AVve+sX+k+RBLGDKpKNyECTjPLu4eaWoCIFpaR4npX+yyLULIso+/jhJ9XdBI9ZJ1Xf2+NjEhjr5gaF3JtSUszz57ufP24eb0dZuzgTO3t1+/3mx0+quQAuoDuYw3t7fEyMBciQkmEyTipPT8/Pd0yen5+ewh+dBnAB3QveW/EuIplAFkJKqkuKeXhMQUPUOWE/Ymz7R1R3Ad3G28cLJYDMTyi39xgnA2Vy+CLsH0dHTHE7e3vbE7q3a5wcmVJSTMZJQSnpguwxNMrG4Bjd74Q3kYDSzFNOBkpJqeyGEvx9Y6MwYWNwvxvdTEJORprPUdlkwv5C/23+7mwLYvDkVz/Uu7zLu7zLu7zLi/wfwMshDtgB1UAAAAAASUVORK5CYII=;" vertex="1" parent="1">
          <mxGeometry x="576.26" y="188" width="72.5" height="72.5" as="geometry" />
        </mxCell>
        <mxCell id="iPtHKylNL2sxlNdy4_Nk-25" value="WireGuard Mobile Application" style="text;html=1;align=center;verticalAlign=middle;whiteSpace=wrap;rounded=0;fontColor=#000000;" vertex="1" parent="1">
          <mxGeometry x="585.01" y="271" width="60" height="30" as="geometry" />
        </mxCell>
        <mxCell id="iPtHKylNL2sxlNdy4_Nk-26" value="" style="rounded=1;whiteSpace=wrap;html=1;" vertex="1" parent="1">
          <mxGeometry x="646.51" y="610" width="110" height="124" as="geometry" />
        </mxCell>
        <mxCell id="iPtHKylNL2sxlNdy4_Nk-27" value="" style="shape=image;imageAspect=0;aspect=fixed;verticalLabelPosition=bottom;verticalAlign=top;image=data:image/png,iVBORw0KGgoAAAANSUhEUgAAAOEAAADhCAMAAAAJbSJIAAAA+VBMVEX///+IFxr8/PyBAACAAAD5+fmEAAD09PSIFRj19fXu7u6HExbr6+vx8fHo6OiGDxPf39/T09OFCA3i4uLX19e9vb2IAAjIyMi3t7fFxcV7AACzs7OqqqqFAwrPq6z06+uho6O+jY7m09OeT1Ht3t+UNzmnYWK4g4TFm5yWPD7XurrfyMjLpaby5+eramuxdXaQKy3gycmNISSfUVKYm5uXREbBk5SOJymucHFxAACOVFWKMTOMVleRf3+cRUetZ2jOuruxg4TErKy3mJmcWFqxkZGfZmeqh4ihdHWxoqLGl5imkZKZbG2NPD6PRkiflpePYGGRcXKThIVpzCGAAAAVeklEQVR4nO2da1vbuBKAE0tWlBgQGAhgcEIS5+ZcSbgtFNrtdrunu1Ba/v+POZIdcrNkS3JC6fMwX9pSYvvNjGZGo5GcybzLu7zLu7zLu7zLu7zLu7zL7y/G5I9c2at2fL9Exfc7napXyBsLv/EbyuTJe51Ss39xVYQQAPQigP7LHtauK6Wz8vwv/z5isCfOV0vNewQRQC6xcHZZsEVc+n8QjSu+Z7x86LcQ9qS5amtMEAAkAhYltSln9mO3av4ekOwZe6XGCCAbR/UmpLRshIbXfvmtQ7Kn81o1BGxLGm6O0gXFRukNQ7Ln2uzWACLyuotQUlU2fPNNeh7G12lQPG26KSRAg+pbU6RBH2ezOwSuvvYWIAG6p4p8O4yMr1fJyvhNaUYCht3NN8IY8A0Q0vAtsUIQqbwJxpAPrMY8FwWj4mXuVzPS2xeaAK2DL2RELdP4hYz03mbXXRtfwAiufONXMbIbd+prsc95IWBc/TWmSvnKfRX/iTHNtalYCtlcIDaq5F9fjeyOpSKQx3Pp1IkM2+37+qiIoMPSVvkPo2HntdVIAXs1qPCM2Y9+efbxsudXagjKJwgEXm++phrZCPRdV5qPUI1RHdYHJW/uIfP+wJa3cjQ8ez01Ur7NgYKHsT6WKrUsneEDCK7oPDA/gyzVoSwjAZevFTgM06gOkTQfFdCmw8grDeo2gNBxQK0ye1D/HtpyV8FgXH4VRMPMlFRnEATed9hnTa9TuqxUKqX5C1bHjiSjmz3LmOtGpDHeVLHQGWPdF17Ua0g6LQu0jDUjUsCNmpKFzjGO/u2JrutLfmkYDPLmOi2VfoHeUN6HLokFUKMjQoSSF0HjwhoRKeAZlhwzXME2JGf8a1dkswfU7q0NkQL6aj6GIBjIJIOh81pXOBobsqPbxp65nsHIABXSGPoosF7xq57nVUuVsU1B0X035voDCCYFSFCMvQ1B1bUgUifalc9DGWC/Ov/5stczBZfOecEfvVaN0IAJnVIzPtexUGcNiBSwpRYlil3Jh+hh53LyV7PnVc/OzIxXj3XYFvq0csRAg4phEIzkGKsOHC3HEaMRay+r1yIdg5/V47wFcNzAm0qH534aCVpc7VikGpQOWIsPAkfV5MvzpZ4wFleJSAE7utUYAnURq/HfKcmuLi5SQA9rl0Pdhu59x/HJhd3eyK8G0TDzW0P9TMYayj+FEYhpBn9kKgkJMPqSW4kW6R1ztaI2YBajcvJNqPjBHDmUcCk8cQ0LDFYyFNl0SW82MRHZgdhqDq6vr/v9RqNxjwNJvDTorgCRApaUUpnoY5SS77IsstkTOsunRaSDsJqqqG0hp6J8V0829pLRVkpvYxjUy6RYNSMg2+zIjcM5yceHwnlx03obI5+/1h+EFhyKSxeB9Kp+t0LHHxt8/f71YMBWf8tthUk2aKUaitRGP+sPQkQSRmAfOKyNCLiuzcSlguCgglRCE0bVFEORAnraC9cYDkSzpYmcOZxrY9W1LFIvaA9FOghzNd1Qj5NdqF6qGxHU1FYiVaHanHce0BXVnGZiZleyMo6BbsiggNvx5YS42w5LnapXzsfeobUaJZL2ph6ikd9saFcOqQeA0GG1mXqj4otA71MlS1NBlzkdQpqOfkqXzASCCWvMa/AzN/N+JUvI1J9qIFLADfnAm/QIrvORf5umUvVOJG5jM69D2FqNDbEnAANRYuMrRT+BYPRJWYkUcFdhHTpWXKfvie/Ua69gLJB2IadKmM+lmzPNBPSFCzKhVGD6qIG6m2pKNMzNvRX1ybiVMpVer9oRKrKTTa1GK7uhZqc0UlzrR4pFcYMpOwAQDkS3K8suIIoF/aWkRKrCnRW2Ok3m6xjcCydSXen1fIFYoy0VJa5ShfNiI8HaWiZTzaYc9qilEDFWOAqXBDv/Cm+a0lKt4Za8nRr5wp8ri4VLAhvCOVU3nU9Fn6UJqQq3s2tryENDoU+tFtNEf3Ih7U6pCi/XpUL2JEBY2ijXU4QNmthIKpGqcGO46p7mhUdxmqJ7m7UUiHZDMrGhKvy8MhVi4rJlXVbIZlMpN6xjx4SN+HXD+HuhHTklmrnClxVkw1QsF6L7Qdev9nKmWe5V/Va/DgBLd11LGDZSIKJKQSZgGGZhJaEC23B07Ud01Ss1WEeiBYVrpxf6DTtXGzJKpEb61wqM1IVjXxAXyqU2tDG8FjyLeaWd3qBPhWRC6me2LlLPfO3YCVMmc1aDBNQFcw7pmn5E3MFGsq+hRtpJq0ILjmP5AsY6sJFgVaqrW6HCeDtZiUZu45+0GSJOqOWH8i9wocDfaFdp0edEX5PeSDHs52QAqTVSx8qvqiYs4YvFvabJaQJhvpBu3oTFTjJ6swYEfC1+1PSn1jDRTKmRpvKkllrrRRMC7u9XHc37o08bCWZKjTRNuCckoSazLBWIuJ9oa44U9OfWZiwhC/cjfSMlWUVAhoh5FXHdlXVysRVvpkZ+45O+kWKUGCSi0oc1zk97mjERk52NeMLNLf25L4bJ602cW9Yhb6Fft96OPm/FBX1qpFs17VgBWxqAVF0Ozzs1Nb/o4p+x8cIwN/a095q7Yy1AtshWj/7Q1x2I97uFOMKc/jCU7X3iSJ1j3p4mISZ7cfGCxgrtaAjkI/2ydGBU/WXdvAN9ihuIdBjq1kkJx9KkpQ0i+jd1gxb6KyYi0mG4qxtqYcymn9Jls3npx0SSrhP5tKFbKnKvYwYijYbbmsZB2oJr9ipFJ1y4cFBTBOlxalN1TUJysSuOiEZuS9fRQH5vSb4JZ18ZRlCwUGqiaNTXJcTFbbGrofFes8qGi1zDOBstpiYYEX5SULcjz6Jd0AQHYldjFnb/1iN0r3nX86MLShZf2Rco8iza6THNakSuhmY0uwM9V8rN13xuVxcXMUpY1m43Q3/tirIa6kq39aZOGHK+tB4PkP0ux9+0h8s/0Y34LG8TOlMjv7WtFyxsXsJ2L/iySIQmYxb7yz/qaBO6X7dFzpS6Us3JIbqMXk3clxe1U8+JXEC7oy5LxkJnSgl39KyfV1C6F1qDNVr+3ZITuYCmQ2CE7b0tEeHm7oGeKwXRoeXFlMsifukimrXp92NZV3uicGFu7uoFfOxGCxGtGCtzl5oyvGjmndcv+GFrJ4ZQL+DjbPRicU55OUtvRtPSszSLbAeicEHDoR6hFfWOsVaG0YLOy+gq8pUn7QiKE3QkJtzWmx1y0m4zthFgcdhVnGgSkKYtEn16DcJybDFkwTOVnYvox3UrwkwooSDk05RGLy3lzH7LnOM8Z7Kgw7ETLbLqR8MsS0y3+YSGNiFnHJqjmKkBtuceoPsHJ1FNtTgUS6i3sMbzpXHp37xVV51IwhYfTJNlDTpc8o2BxNV75uJh2b7nPIpusTQUMWFel5CX08RtF5nlNLnRiLPYaKY4HzQbT7inSxgtQ8U8pTU16h4a8coacfmQhKBPYivd06yW8uYWl8LHnK6hdmCdBxjrpWSeZj+G8Jvm6TqcwWSI9i2Sq5fvwGlw08d/U/ZEo6MYQt1CFG+O7/H7RfFkHaZaF/Saale7X25QFBGyiK9dTOTVaarczubQRr2Pf9QF1dMUWzoDwfhASFjY3te8Or/W5g2j65zBYuFZw0GizXtnaRI2JtZwJ4bwSHMXCUZ8w68sn20KWhmvNXLEp56YV2kbP8njzrY48z640hwDov2U7HzauW+NjCtDxxn74sWhtDZK7/FlRzi32NzeedRMCIXrFplyqYZguLkJ2wjCWjeum6GUfkui/TWGcHdHu9UkZu0pU+60GsRCENQuz+KXUasr2K3n/m9nV1DFMCjhg26JK3790B/CbCW5l6i3ihOl0d/CShSrJup37cWsAXeuHOFRdPNSzq5iwyP6Jq4m5rZ0k5osK7gJDNAbJzSbTgFTnBEzT7gvXMk38lt7h/quzP3Cveqlcy/X6laur2QjEgv4wqo+TdsOUhyNz+tKLLcdyQ4GL7ua9nlyIQz4bHVt+0A3XGRnGeecdBxRq/Oy+FDqhSbJ4n4VBvwg5O98TfFNWvbSeOs6wi2HS3LpwKbfXsU2D/Q3DYfCjImGC805cCj2VW/xsYU71RalPHYu6JdjpNkxMyX8Jizqh+HiW6q5iz1/eN4lp9LLlRZ4SfpSbCeZCMb7wmAROtP9dLvWyKz/nlsm5Ig/+qM/DTSpEcmF2JWG1baD7+nG+7QVwf9DxokapZFTn3dQ45Rj0f2fcHbIhDnT/6U4uYzJpFe/B4Ub1GZSrthOdlHTZppDm7LBMBQ2KmRCV6Of1UxvgktGecjr/F2Uap9OOirLT6PbHRwKzh7GOJrQ1ezrThFnYsERspN6Mf0ahJB3GEGqCRT5fhTbfclKpgdfUpkJe5caQFZCQ7TZHVG+AT9d/ZjCiorBMIwhZANRf3qBbQCH15VuqYRiI703gACOWqJTa+JX5uIlYRiGA/FYu1YDvpRC2yxBsY0a/hgCTOJyAe2dXVnrdj92GIYR8UgrXmCEmi+DquwIe9rLrSFk3yAm7ZgZsfYKsP2VDsP43QgsIv6jES/IfGPlNRBcvtdEYDKLxwTBe1HlQ9vZoG/xwzATRsRj9cQNDOcU4glUaMw3m4ZfS1ugR82VC3y1H5N2T56CxgtlM8WLp5b0AXeoV0k00hHBsZGaq0/uw1FMUjohZPFC0Ztai8XSMj+b8flnQkDuIbyanQoSRhqcGHFwqHRMm4UWY1/X4Zme8MB6wN2IorWLlHnS+FgRIDIzVama4uUdhPec/qG43cuAFzu19q4V/0k20nCt++A/BTNdbiss886EEC4mBlfguFSd7BST42QjDcx0d2f/VtqXRbZz+dFOyrgFYfZkNie70VigsW9YuE8y0knQl/Y1xYijqHDymYRFT8BxqOp7d3DxW1K4nxAGIVFygoFJBKfBWaNJWLe2stEvXj1ekO/7rClR4mAMc5NOoSTnwZzGe8xZLE06xpOzrNNRTmvQf0fCBYtFYSHx6CS2L+1FeMsxnITGS4pubrQvqqeqQ+v2UMbPBISBr/kqMw4WVWh4ndb1FUcfiX140c7vTFl1hoP+SZpWzD1poESJO2D0ckH2zrE2AQC4FuckiMSudM7uTEPRmSqo8EWJEiuJk/60st8fAVAk4THxnE29yVuLOW1jiju7mArl/EyAyALGSfIaDWv2Kpe+IOjOPQ1nS0zyJi3O16I2RwxUmHScwhyhWdg92H9IdKewWvoCwZI5cwiTDY5DqLZ7B/2nosJwrfToOHmSBpbx+ITJ6uBZqQoheVRS4ctI1CtJcdSR8LIRvqdR2X+I3SfqSNUOv2Tu9FhrLZFTR2xqRAul/YfuB0UVvijxP53jvDm9Q4lTITs6DVbp38PZkyDnVjuElk6ijg4/aKyso2ga3UvKaTjfisr+Q/SPQiycEgbZ6YnGZj2OPjIX8QORdxyDwqkR5Psxy0iTp03LiHSKcagyFZ6INYp+lwnvCHA5h33LbwvCxSe1SDElDCKGRhcYbxesaD9p+Ii8T8gfsVJ8ODyIXY0RIxaoszlRn2vz2hSrcefLAk7Zw5ROvMnjiWqkmCKyig21U9WhyBuImUuxnZIs5+HOZKeHGD9puJkJIXU21E5/qNb4sc07r60v8hzY4a2xSe8pQXfUzSie5T2HGNipctznnzEr6EEg/BPbZC3HvTnWtdFM8BYWZqdPqq8S4e5dZ+8Z5Ty1a3FXLmRrGOSWDkJNGw0QQ3/6rDgUub6RSgktmx6GY/5CY0POhWPydEzTtZz+G5/C5O34QTEq8jv3aSZ27cx9WdiGSLC8Jrl3DQeDUNtGQ8R8YZsOxRvF7I2zZzKUXpNAELzdiXV8Cxun+3L3Qw/HWrF+gdDMsaF4+qgW+Dm1s6lUu4Mv43G/GT2Ad/YrcqezFz8EgzDti9fCkHGq2Mej/WrOQOQWnuzvJ2zOpBkoIoiKDjXVuVhya9zk9jRMuFMCvkTF4ye1uSJvKUJS5GaGZHSa2su8EE68zbNSiVbvDMVAYrP0KeDV+fHRzq5+JFxANGngV0a0RK37SZJY8ggAR0/Uy+ym9TIzxMChntwpIdp1rZtLDcIQkLrRVb3zmOU2DFFNi5wTypJF6v30E8D0bpSDWFTxqIC/AWNlgCvTYIi4GSIq7dsBNcXaSUkG0L49X7UGZ4j7J0+3KtkNGCqdK1yRASx+XwvgDPH8USVHtZF80Mg1JJwMLt6crgdwhnh6ozKZwrAp+ST+SGIGg9HD6fGaACdBg2Y3pw8quwQxGEptzLuWeVEQIXcnNNCv2MksI9I0/HmktC6U/KYEowVlqkHu7dPJIctk1gQYINIc9ej45OlRKUu1YT9urpFrYZkOKIxuzulsYm9lmQwfMV/Y3aNR4/TBVYmM2AUXJcEbE6oDG8hci+Cf1MccBMn22gBZGs4mU8zfPKtt+MQEoEZ32VpznWYdSnWw4eLjU+Bj1gw4QWSD8eT8RnFbMuvkL46bXb/qeV71zL+8rgOI5EY0cR9O2RBckxNdYqT+JrTU56HyhlNKyV785DgQgpeXP0l8ClEFMgtdo49ZRMwXmKUen57/sFf1ttk4PjtLRyALEmu30CnixFKZGr8r5eI6QuybiQKZhb4KYICYYz51//jk9G6o/WZrGbGKj88TBb6OhU4ZzUCNzKme/8ym2P+dxDe8O6UulCnwtSx0isjUODHV84eRUnSU57v9eR660ECBrwqYCdW4MTHV84erVY9HTKZ8rzoCFxCpU6WmOmH8eSvt/KX47Mc7xhca6C9Q4JQxMNWQ8e67vaL3XFs2uXme8P0aA51jNOcZn3+MiqkViW10+/B0OuX7NQa6yLgZMDKfQxV5k00DadnFqw9MfceHR2+DLxOYasC4d3AUKPL8581V0ZZqE19SHrHd4Ye7c8a3T/1LwPcGADMhI7XV3T1qrIcB5N2HW+wSBUps2W728cdzgEfNk/rPkO9Xs72IwXwOjR2BIg9PGOTTzw+3lmsnY2KLuIzu7un89AVve+sX+k+RBLGDKpKNyECTjPLu4eaWoCIFpaR4npX+yyLULIso+/jhJ9XdBI9ZJ1Xf2+NjEhjr5gaF3JtSUszz57ufP24eb0dZuzgTO3t1+/3mx0+quQAuoDuYw3t7fEyMBciQkmEyTipPT8/Pd0yen5+ewh+dBnAB3QveW/EuIplAFkJKqkuKeXhMQUPUOWE/Ymz7R1R3Ad3G28cLJYDMTyi39xgnA2Vy+CLsH0dHTHE7e3vbE7q3a5wcmVJSTMZJQSnpguwxNMrG4Bjd74Q3kYDSzFNOBkpJqeyGEvx9Y6MwYWNwvxvdTEJORprPUdlkwv5C/23+7mwLYvDkVz/Uu7zLu7zLu7zLi/wfwMshDtgB1UAAAAAASUVORK5CYII=;" vertex="1" parent="1">
          <mxGeometry x="667.01" y="620" width="72.5" height="72.5" as="geometry" />
        </mxCell>
        <mxCell id="iPtHKylNL2sxlNdy4_Nk-28" value="WireGuard Service" style="text;html=1;align=center;verticalAlign=middle;whiteSpace=wrap;rounded=0;fontColor=#000000;" vertex="1" parent="1">
          <mxGeometry x="669.51" y="696" width="70" height="30" as="geometry" />
        </mxCell>
        <mxCell id="iPtHKylNL2sxlNdy4_Nk-31" value="Localtonet Local Service" style="rounded=1;whiteSpace=wrap;html=1;fillColor=#dae8fc;strokeColor=#6c8ebf;" vertex="1" parent="1">
          <mxGeometry x="770.25" y="550" width="150" height="50" as="geometry" />
        </mxCell>
        <mxCell id="iPtHKylNL2sxlNdy4_Nk-32" value="Ngrok Local Service" style="rounded=1;whiteSpace=wrap;html=1;fillColor=#dae8fc;strokeColor=#6c8ebf;" vertex="1" parent="1">
          <mxGeometry x="285.25" y="552" width="150" height="50" as="geometry" />
        </mxCell>
        <mxCell id="iPtHKylNL2sxlNdy4_Nk-33" value="" style="rounded=1;whiteSpace=wrap;html=1;" vertex="1" parent="1">
          <mxGeometry x="746.5" y="883" width="120" height="149.5" as="geometry" />
        </mxCell>
        <mxCell id="iPtHKylNL2sxlNdy4_Nk-34" value="" style="shape=image;imageAspect=0;aspect=fixed;verticalLabelPosition=bottom;verticalAlign=top;image=data:image/jpeg,/9j/4AAQSkZJRgABAQAAAQABAAD/2wCEAAkGBxEPBhUQEBESDxAREBMVEA8XExUSFw8SFxMXFhURFhMYHSggGRolJxUVIT0tJSorLjAuFx8zODMsOigtLisBCgoKDg0OGxAQGi0lICUtLS0uLS0tLS0vLS0tNS0tLTI1LS0tLS0tLS0tKy0tNS0tLS0tLS0tLS0tLS0tLSstLf/AABEIAOEA4QMBEQACEQEDEQH/xAAbAAEBAAIDAQAAAAAAAAAAAAAABgQHAgMFAf/EAD0QAAIBAQIICQoGAwAAAAAAAAABAgMGEQQFEiExUWGxExQiMjNBU3HRIzVCUnJzgZGSoUNissHC8BXi8f/EABsBAQACAwEBAAAAAAAAAAAAAAAFBgIDBAEH/8QALREBAAIBAgQFBAEFAQAAAAAAAAECAwQFERIhMRMyUXGRIjNBUmEUI4GhsRX/2gAMAwEAAhEDEQA/AM8tj50AAAAAAAAAAAAAAAAAAAAAAAAAAAAAAAAAAAAAAAAAAAAAAAAAAAAAAAAAAAAAAAAAAAAAAAAAAAAAAAAAAAAAAAAAAAAAAAAAAAAAAAAAAAAAAAAAAAAAAAAAAAAAAAAAAAAAAAAAAAAAAAAAAAAAAAAAAAAAAAAAAAAAAAAAAAAAAAAAAAAAAAAAAAAAAAAAAAAAAAAAAAAAAAAAAAAAAAAAAAAAAAAAAAAAAAAAAAAAAAAAAAAAAAAAAD+Hv4js3KvS4So3TpvmpLlT259CI/Ua7w55aJjRbVOevPfpDvxvZV06DnQlKpdzoO7Ku1prT3XGGHX808uRt1ezeHXmxdf4TJJoIAAAAAAAAAAAAAAAAAAAAAAAAAAAAB/Cks1Z/hWq1ZeT0wg/xNr/AC7yM1mr4fRRO7Zts3/uZI6ei0SzEQs8dOkAEtaaz+VfXoLlaalNelrlFa9hJaPWcv0X7IDc9t5v7mKPeEgTCtzHDoB4AAAAAAAAAAAAAAAAAAAAAAAAACks1Z/hWq1ZeT0wg/xNrXq798ZrNZy/RRO7Zts3nxMkdPT1WiWYiFnjpHQAAAJa01n8q+vQXK01Ka9LXKK17OvfJaPWcv0X7IDc9t5v7mKP8JAmFbmJieAHgAAAAAAAAAAAAAAAAAAAAAAApLNWf4RqtWXk9MIP8Ta/y7yM1ms4fRRO7bts3mMmSOn4j1WiWYiFmiI4cIA9YuG4xo0OlqKDehaW/gs5tx4r5PLDnzarFh888HDAsbUK8rqdROXq54v5PSe5MGTH5oY4dbhyzwpbr6M00uoAlrTWfyr69BcrTUpr0tcorXsJLR6zl+i/ZAbntvNxyY4/wkCYVuYmJ4AeAAAAAAAAAAAAAAAAAAAAAKSzVn+FarVl5PTCD/E2v8u/fGazWcPoondt2ybzGTJHT8fytFoIhZoiOHCAPXVhdfg8FnU05EJSu13K+4zpXmmIa8t/DpNvSOLWGEV5VK7nN5UpO9v+9RZKY4pXlhQ8uW2W02tPFwjJqSabTTvTWZp9TTMprExwljW01njXu2ViXDHXxXCpLnNcr2k3Fv7Xlcz4/DyTVeNFm8bBW8s00uoAlrTWfyr69BcrTUpr0tco7dn9clo9Zy/RfsgNz2zm45McdfzCQJhW5iYnqB4AAAAAAAAAAAAAAAAAAHspLNWf4VqtWXk9MIP8Ta/y7yM1ms4fRRO7btk34ZMkdPwtEsxELPERHQAAdeEUlOhKD0Si4vuauMq25ZiWGTHF6TWfzHBrTD8CnQwl06iua0PqkuqS2FjxZq5a80KNqdPfBea2h1YPQlUrKEIuUnoSMr5K0rzWa8WO2W3LSGycVYHwGL4Ur73GOd65N3v7tldy5PEvNvVeNLg8HDWnoyzU6AABLWms/lX16C5WmpTXpa5RWvZ1kno9Zy/RfsgNz2zm45Mce6QJdW5iYnqB4AAAAAAAAAAAAAAAAKGy2JFXlw1RX04u6Me0ktN+xfcjtbqpp9Fe6a2vb4y/3L9lulmIZauHDpAAAAAJa3fQ0vanuiSe2+efZAb95aMSw3nGfuv5I27l5aubYvu29loQ60AAAAAk7V4kSg8IpK7rqwWj21+/zJTRaqePh2V3dduiInNj/wApMlldAAAAAAAAAAAAAAADeYDZ2K8HVLF8IL0YK/a9LfzvKzlvz3my+aXHGPDWsejKNboAAAABLW76Gl7U90ST23zz7IDfvJRiWG84z91/JG3cvLVzbF923stCHWhh41xlDBsGy55+qMVpk9SNuHDbLblq5tVqqaenNZLztjW4TNTpqPqvKb+d/wCxJxttOHW0oGd8y83SscFDiTHMMKpu5ZFSPOg8/wAU+tHBqNPbDPXsmNFr6aqvTpPo9M5ne41aalTcXnUk01rTVx7E8JiWN6xas1lqytTyK0o+rKUfk7v2LNjtzVifVQMteW819HAzYAAAAAAAAAAAAAAPkub8BI2vT6Ndy3FWnu+hY/LHs5HjIAAAAEtbvoaXtT3RJPbfPPsgN+8lGJYbzjP3X8kbdy8tXNsX3bey0IdaEXbmT/yEF1Kneu9yd+5Ext0RyzP8qvvlpnLWs9uCbJJBy9aysmsfU7uvLUvZyG/2Rya6I8GUltUzGqrENhEAuQBq/GHnCp72p+tllw/br7QoOo+9f3ljm1pAAAAAAAAAAAAAAfJc34CRten0a7luKtPd9Cx+WPZyPGTBxvjSGC4PlTzt5oQWmT8Ddhw2y24Q5dXq6aanNZMSthW4S9U6aj6vKf3v/Yk422nDv1QH/u5ZnyxwUeJccwwqk7lkzjzoN33bU+tEbn084Z69k3otdTU16dJj8PSNDuS1u+hpe1PdEk9t88+yA37yUYlhvOM/dfyRt3Ly1c2xfdt7KLHeN4YLg975U5cyGva9SI7Bgtmtwjsm9brq6av8tf4VhE62Euc25Tk/+RS1E/jpTFXhHZTsuXJmvxnrMs9Wcwq9eS03Z8qCu785p/rcPq6//L1U8OFVPZ3EPFr6k2pVZK7NogutJ9bIvVaqcvSvZPbdt39P9dvNP+nuHGlQ9Gr8YecKnvan62WTD9uvtCg6j71/eWObWkAAAAAAAAAAAAAB8lzfgJG16fRruW4q0930LH5Y9nI8ZIi28n/lYp81UVk97lK/cvkiZ26I8OZ/PFVd7tbxoie3BPEihXs2Rk1jyN3XGal3ZN+9I4tfETi6pTaJmNTER+V+QS4Ja3fQ0vanuiSe2+efZAb75KPExDjNYLVqTaym6d0I65ZSed6jr1WCc3LEIvb9XGmm1vzwYOE4ROthLnNuc5P/AJFLUdGPHTFXhHZyZcuTPfjPWZWFm8QcClVqq+q1yY9n/tuIjV6vnnlr2WTbNtjFEZMnf/iiOFNh48AB6NX4w84VPe1P1ssmH7dfaFB1H3r+8sc2tIAAAAAAAAAAAAAD5Lm/ASNr0+jXctxVp7voWPyx7OR4yeXj7E6wrB1nyakb8iXfpi9mZHRp9ROG3H8ODX6Gupp/MdklKzWFqd3Bp/mU4Xfd3/Ylo12GY7q7batVE+Xj8PNTnRwnrp1IS7nFo6fpy19Ylwxz4b9OloXdn8dxwmlkyujWiuVH1l60f7mILU6acM/wtm37hXU14T0tDzrd9DS9qe6J0bb559nHv3kokUr3cs7eha3qJeZ4R1VuIm08IWtm8QcClVqq+q1yY9l/tuIXV6uck8te3/Vp2zbYxRGTJ39PRRHCmw8eAAAejV+MPOFT3tT9bLJh+3X2hQdR96/vLHNrSAAAAAAAAAAAAAA+S5vwE9hten0a7luKtPd9Cx+WPZyPGQAA8W0OI1hNPLhdGtFZnoU16svE69NqpxW4fhF7jt9c9eavmQyc6OE5r6dSD7nFom5imWvrEqpE3w39Jh6mOscLCsBpXq6pByy11O9K6SObT6acOS3DtLv1mujU4qcelo7u+xVGMsZyckm4U74v1XlJXrbnNe42mKREflu2WlbZpmY7QuCHWviHjwAAAAGr8YecKnvan62WXB9uvtCg6j71/eWObWkAAAAAAAAAAAAAAazA4tl4ow6FfAoyi1fclKPXGV2dMrWbFbHeYledJqaZscTEs01OvjAAAAeLaHESwmnlwujWisz6pr1ZeJ16XUzhtwnsitx2+mevNXzR/tB1KbjUcZJxknc09Keonq2i0cYVO9LUnhKisN5xn7r+SI7cvLVM7H923stCHWgAAAAOMOnC8JhRoOdR5MV99i2mdKWvbhDVmzUxVm1paxr1MuvKejKlKV2q9t3fcstK8tYj+FEy3572t6zMusyawAAAAAAAAAAAAAADlTqSjK+LcXrTafzRjNYt3hnS9q+WZh2ccq9rU+uXiY+FT0j4Z/1GX95+ZOOVe1qfXLxPfCp6R8PPHy/vPzJxyr2tT65eI8KnpHwePl/efmTjlXtan1y8R4VPSPg8fL+8/MnHKva1Prl4nnhU/WPh7/UZf3n5l1zm5Svk3J622382ZVrFY4Q1TabTxl9p1ZRd8ZSi9abW4WrW3eOLKt7V61ng58cq9rU+uXieeFT0j4ZePl/efmTjlXtan1y8R4VPSPg8fL+8/MnHKva1Prl4jwqekfB4+X95+ZOOVe1qfXLxHhU9I+Dx8v7z8yccq9rU+uXieeFT0j4PHy/vPzLhUqyk+VKUtV7bu+ZlFK17RDG2S9vNMz/lwMmAAAAAAAAAAAAAAAAAAAAAAAAAAAAAAAAAAAAAAAAAAAAAAAAAAAAAAAAAAAAAAAAAAAAAAAAAAAAAAAAAAAAAAAAAAAAAAAAAAAAAAAAAAAAAAAAAAAAAAAAAAAAAAAAAAAAAAAAAAAAAAAAAAAAAAAAAAAAAAAAAAAAAAAAAAAAAAAAAAAAAAAAAAAAAAAAAAAAAAAAAAAAAAAAAAAAAAAAAAAAAAAAAAAAAAAAAAAAAAAAAAAAAD//Z;" vertex="1" parent="1">
          <mxGeometry x="761.5" y="892.5" width="90" height="90" as="geometry" />
        </mxCell>
        <mxCell id="iPtHKylNL2sxlNdy4_Nk-35" value="Home Assistant" style="text;html=1;align=center;verticalAlign=middle;whiteSpace=wrap;rounded=0;" vertex="1" parent="1">
          <mxGeometry x="776.5" y="992.5" width="60" height="30" as="geometry" />
        </mxCell>
        <mxCell id="iPtHKylNL2sxlNdy4_Nk-36" value="" style="rounded=0;whiteSpace=wrap;html=1;" vertex="1" parent="1">
          <mxGeometry x="746.5" y="770" width="113.5" height="100" as="geometry" />
        </mxCell>
        <mxCell id="iPtHKylNL2sxlNdy4_Nk-37" value="" style="shape=image;imageAspect=0;aspect=fixed;verticalLabelPosition=bottom;verticalAlign=top;image=data:image/jpeg,/9j/4AAQSkZJRgABAQAAAQABAAD/2wCEAAkGBw8QEhEQERIQFhAVFhUQFRcSFQ8YFRIVGBUcFhUWExgYHSggGBolHRgYIjEhJik3Li4uGB8zODMtNyktLisBCgoKDg0OGxAQGy0lHyUtLS0vLS0tLSstLS8vLSsvMi0tKy0tLS0tLS0tLS8tLS0tLS01LS0tLS0tLzUtLS0tLf/AABEIAOEA4QMBIgACEQEDEQH/xAAbAAEAAgMBAQAAAAAAAAAAAAAABQYBBAcDAv/EAEMQAAEDAgMFBAUICQQDAQAAAAEAAgMEEQUSIQYHMUFREyJhcTKBkaGxFDVCQ3JzwdEjNFJTdJKTsrMVgqLwMzbhF//EABsBAQADAQEBAQAAAAAAAAAAAAABAwQCBQYH/8QAMBEBAAIBAwIDBAoDAAAAAAAAAAECAwQRMRIhBUFRE3GBoQYUFjJSYZHB0eEiQrH/2gAMAwEAAhEDEQA/AOXXS6witcs3S6wiDN0usIgzdLrCIM3S6wiDN0usIgzdLrCIM3S6wiDN0usIgzdLrCIM3S6wiDN0usIgzdLrCIM3S6wiDN0WEQERFIIiICIiAiIgIiICIiAiLZoaN0zsrfMk8AFEzERvKa1m89NeWsi3sRw18NiSHNOlwCNehC0VFbRaN4dZMdsdum0bSIiLpwIiICIiAiIgIiICIiAiIgIi9aWB0j2xttmcbC/D1qJnZMRMztDyRS2IbPVEIzWD28yy5t5jiolRW9bRvEu8uHJit05I2kREXSsREQEREBERBloJIA1J0HiVbsLohCwD6R1cfHp5BRuz1D9c4eDPxd+Cnliz5N56Ye94ZpemPa25nh5VMDZGljuB93QhU6pgdG4sdxHv6EK7KMxyh7Rudo77f+TeYXODJ0ztPCzxHS+1p115j5wq6Ii3vnRERAREQEREBEXvT0r38Bp1PBRMxCa1m07Q8EXrUQlhym3XReSRO5MTE7SIiKUC+4ZSxzXt9JpDh5g3Xwiie5EzE7w6dTTiRjXt4OAcPWo/E8BgnubZJP2mc/tDgfitLY2szRuiPFhuPsu/I39oViXkW6sV5iH3mGces09bXiJiY+bn2J4JPBckZmftN4f7hxb8FGrqahcT2chlu5v6N/Vo7p82/ktOPV+V3javwKY/ywT8J/aVGRb2I4TNB6be7+03Vvt5etaK21tFo3h8/kx3x26bxtIiIunAtvDaMzPDfojVx6D8ytVrSSANSdAOpVvwyiELA36R1cep6eQVObJ0x+bbodN7bJ34jn+G0xoAAAsBoB0CyiLA+mERESrGO0PZuztHccf5Xcx6+Ki1dqmBsjSx3A+7oQqdVU7o3FjuI945ELbgydUbTy+c8R0vsr9deJ/68kRFoecIi9IYXPNmi/wHmoIiZnaHmvWCnc/0Rp15KQgw5o1dqenL/wCrdHhwVVsvo24tHM979mpT0DW6u7x93sW2i8K2XKwnme6PWqt5tLd00xVmYhFVcud5PLgPILxRFqiNoeLa02neRERSgREQSOAVnYzscfRPcd5O/I2PqXQlywroeBVnbQMefSAyO+03T36H1rBrKcWfS+Aaj72GffH7pBERYX0rBF9DwUFiWzEUl3Rfo39PoH1cvV7FPIuqXtSd4lRn02LPXpyRu5vX4dNAbSNIHJw1afI/hxWouoyMDgWuAIOhBsQfNQFbsrE5wdGSwX7zeLSOeXm1bserifvPm9V4FevfDO8ek8ovZ6h+ucPBn4u/BTqyYslm2sBoOlvBYVN79c7t2n08YKRSBERcrxERAUZjlD2jczR32/8AIcwpNFNbTWd4VZcVctJpbzURfccbnGzQSVOV+Etzl/0DrYdefqWWMDRYAAeC2+2iY7Pno0F4tMWaVPho4vN/AcPWVvNaALAADwWUVc2meW3HirT7sCIihaKLxWW7g3p8SpN7gASeAF1APeSSTxJurMUd92HW32r0+r5REWh5oiIgIiICsexlZle6EnR4zN+03j7R/aq4vWlnMb2SN4tId524j18FXlp11mGjSZ/YZq5PSfk6ci+IZQ9rXN9FwDh5HUL7XjP0GJiY3gRERIiIgw5oOhWpLR82+wrcRTEzDi+OtuUQ9hGhFlhSz2A6EXWpLR82+wqyL+rJfT2jju1EWXAjQ8Vhds4iIg+XsBBB4KLlYWkgqWXhVw5hccR7/BdUtsozY+qN45RqIivYhERBpYpLZob1+AUUtiulzPPQd0epa600jaHi6i/XkmRERdqRERAREQEREF12PrM8RjPGM2/2nUe+49inlQNmqzsp2X9F/wCjd6+B9tlf15Wpp03977XwfUe100RPNe38CIizvVEREBERAREQfEkYdxC1JaMj0dfit5FMWmFd8Vb8ochFKSxNdxH5rTlpHDhqPerIvEsd8Fq8d2uiIu1KPrIbG44H3Fayl3tBBB4KLljLTYq2lt+zDnx9M7xw+F5VcuVhPPgPMr1Ubi0uoZ01Pny/74q2sbyxZ79FJlHoiLW8YREQEREBERAREQF0bB6ztoY5OZFnfaGh/wC+K5yrNsXWWc+En0u+3zGjh7LH1FZdVTqpv6PY8F1PstR0Txbt8fJbURF5j7IREQEREBERAREQEREHlLA13Hj1HFactK5vDUeCkUUxaYVXw1sh14VcOYXHEe/wUzNTtd4HqPxWnLTub4jqFbW7Fl08xG08IBxAuTwGqgJX5iXdTdTm0BDBYcX8vDmoBehh7xu+W19tr9HoIiK9gEREBERAREQEREBfUcjmkOaSHA3BHEFfKKCJ27wsdLtbIBaSNrz1Byk+YsQtxm10X0opB5Fh/JVBFROmxz5PSp4vq6Rt1b++IXdm1VKePaDzb+RK9m7R0h+sI82SfkqEi4nR0/NfXx3UxzEfp/boTccpT9cz13HxC9Bi9Mfrov52rnKLn6nX1Wx9IM3nWPm6QMTp/wB9D/Uj/NfX+oQfvof6kf5rmqJ9Sj1dfaDJ+CP1dK/1CD99D/UZ+awcSp/30P8AUj/Nc2RR9Sj1PtBk/BH6ujHFqYfXQ/ztXw7G6UfXR+o3+C54in6nX1cz9IM3lWPmvztoqQfW38myfkvF+1NKOBkPkw/jZUdF1Gjp+aufHtTPERHw/tcX7XQ8o5T55B+JWtNtebdyIA9XOv7gB8VV0XcaXHHkov4xq7f7bfCHtVVL5XF7zdx9QHgByC8URXxGzzbWm07zyIiKUCIiAiIgIiICLoGxu7GWsjZUVEjoYXjMxrADK9p4OudGA8RoSRyCs/8A+YYOf0QqZ+04aT0xff7OS3uUbwOMIr1tpu3loI3VMczJKdtswfZkrLkNHPK/U8rHwKp+F4fLUzR08IDpZCQ0EgAkNLjqdBo0puNVFJ4/gNTQyNiqWBr3N7QAOY67blt7tJ5gqMQERFIIiICIiAiIgIiICIiAiLYw6nEs0MRJDZJY4iRa4D3hpIvpexQa6K77x9i6fDG05hlnf2pkB7UxG2QNIy5GN/aPFRWwez8eI1YppXytZ2b5LxZM12lth3mkW16KNxXUU/txgUeH1b6WN0jmNbG4GTJmOZuY3ytA9y+aHZGunpjWxxtNOBI8uL4wbRkh/dJvplKCCREUgiIgL0p42uexrvRc5rXeDSQD7l5rDhcWPDgg7fvoqZ4aKJkJcyJ8oilLLjuZDlYSODSQPOwHOx4f2beFhbyC6/szvOpJIBT4k0hwaI3PMZkimbwvI0AkO66WPHTgN4bO7M1zrQPp2yEaCnnMb/VCTb/guY7DkdXjVXLDHTyzyvhjcXsa85spItxOpAF7AmwubK1bpsAmnq46xhjEVM89oHFwec8T2tyANIPHmQvrbndzJQRmohkdLTiwfnAEsVzYOdl0c2+hIAtppa5GnuuxKePEKaBkj2wyvd2jAe7JlheW5vIhPLsLjvb2Vqalxro3QiGnpnGQPdIJDkL5HZAGEHQ8yNVzPZzApq+b5PAYxJldJeVz2ts219Wtcb69Fft8uMVUVQynjmkbBJTfpGNPdfme9rsw8RooTc585D7ib4tSOB5U+7PEnzvp7QARhpfLnf2IzAODWksDnPsb2DbDS5FwvPand9WYfEah74JIQWtJY5wc0uNh3XAX1twJPgrJvU2vroKv5LTyuijZGx7jHYOe91zcu42AsAB43vpaiY1tNW1scUVTKZGxFzm3DQST9J9vSIGgPQnqUjcY2e2cq695jpo82XV73HLHHfhnd49ACfBW2XdBXhl2zUjn/s3mA8g4s+IHqVrwVzsNwKOaniL6iSJk4DWFxdLORZzmjVwa1w06MVAodpMehmE5/wBRksQXRyR1BjkHNuTLlZfq0CydxWcRoJqeR0MzHMlYbOa61xzGo0I8RoV74JglTWydlTROe7i46BrBe2Z7jo0e820BXSt9uHsdFSVrRZ2bsHG1iWPYZGZvslrv5yucbPY3V0cofSvcHu7pYAXNl6Ncz6XO3Ma2sp3Fxj3QV5bd09IH/sgzEet2QfBVLaLZqrw94ZUxgB18j2HNG+3HK7qL8CAfBSkmIbRPeJScYzcRliq2s/ptYGW8Mtl0Ta3PWYEZqmMsqGxxzkOYWuZKx4a4hrhduYZhbo9RuORbPYJNXTtpoTGJHBzgZC5rbNFzcta4+5T8W7TEnVDqa0Hca175c8nYtzXs0OLA5z7C9g3TS5FwvrdD85xfdzf2Kx719rq2nqm0tPK6JjYmyuLMuZ7nlwsXWuAA0cOpvyTfuK9j+7LEKSN0zTFNG0FzhEX9o0Dicjh3gB0N/Bauy2wFdiDBMzs44D6L5S7v8rxtaCXC/M2HS6v26PamprBUQVLzI6IMex7g3MWvLgWusNbFoseOpVT242wroqyWmppXQU1ORBHHCGtADGgEnTXW4A4AAacSW88CL2p2DrsPb2snZyQXAMkRccl9B2jXAFtzpfUeOoUJgX61SfxEH+Zq7XsDiz8Ww6ZlVZ7gZKSR1mjtAY2uDiBoDZ4BtzF1xLAL/KaS/H5RT/5WpEkuob9/QoftT/CNc12e2flxGb5ND2WfK6T9MXBlm2B1a1xv3ui6Vv39Ch+1P8I1W9zfzkPuJvixI4FaxnZ6aiqPkchi7Xuf+MuLO/bLqWg89dF2/Z7ZmopsKfh73RGdzKll2ueY7yl5bqWg27wvouY72nEYpKQbEMhIPQhgIK6Bspi1TLgclTJK91QI6xwkJ7wLHSBhv4WHsUTwmHINpdn58PmFPOYjIY2zXic9zcrnOaNXNab3YeXRRS28SxOeqeJaiV8kgaGZnm5ygkgeV3H2rUXSBERSCItrC699NNFUMDC+JwkaJG5mEjhmH/SDYixCBiWHT0z+yqInxyWDg14tcHW7eRGvLy4rUcBbW1vFdjpt5mFVkfZ4hTlvAkPiE8JPVtgXe1vrWY8d2TiIkZHTl47zbUc5IPK2aOzSudxu4FJK7Z+R1WXG9LU6yXLjFZ/ZEk6nu5bHpZcz3a/OlD9uT/BIprb3eKa9hpqdj46YkF7n27SWxuG2aSGsuAbXudOGoNQwLE3UlTBUtAJieH2P0hwc2/K7SRfxSBdd9/67B/Dj/LItLc585D7ib4tVj2s2ywOupZrtvV9hIyDtad5kikcw5Q2QNLWnNbUOtzVM3c41T0VaJ6hxbF2UjLta9xzOy20aCeRTyG5ve+c5fu4f7FTFZN4eMQVta+op3F0RZG0Ete03a2x0cAVW1McId8pcYlpsDpqqnjbI+OlpyWOzWyta1kp017oDj/tKph3yVfH5NTW+1N+a093m8D5Az5LUNe+muXMcyxfCXG7hlNszCbnqCTxvYWkbR7Ktd24ip+1vmFqObNm43AMdgb8/eudkqVtft7UYhD8mmgijs9kt29pm0acujuRDr+Vlb90VFDBQ1GIFmaW8uoHebHE0HI3pc3J693oqTvB2qixKZkkUAjDAWZ327WUXuA/KbADWw1IuddbKQ3b7csw8Pp6hr3Uz3doHMAJicQA67T6TCAOGoI4G+k7dhsv3wYgSS2GjDTwBbO4gdC7tBfzsFcMZxSSswCWpkDBJJDmcGBwaCJbaAknl1UBPPseT2uQ345GMxJov0DBZjR7AvTHdu8LnwyWkgDonuj7OOHsngMAeMozNGQd0X0PPiVHuSrW6L5zi+7m/sXpvk+cj9xD8XqM3e4vBRVsdRUOLYmskaSGvcbubYaNBPFfe8fGqeurTPTuLouyjZdzXtOZpdfRwB5hT5oWbcV/5637qL+9yp+3nzjXffvU1ut2kpMPlqX1L3NbIyNrcrJH3LXOJ0YDbiFXdqq2OorKqeIkxySuewkEEtPC4Oo9aeY6nuN/U6n+Kd/giXJMC/WqT+Ig/zNV83XbYUNBTTxVMj2vfOZWhscr7tMUbb3aCBq06LnEMjmOa9ps5rg9p6OabtPtAQda37+hQ/an+Eare5v5yH3E3xYred4WCVsLBXxDOO8Y5ad8zWvtYljmtcLeOhtxC59u1xmChrBPUuLY+xfGSGveczsttGgnkUjgbu935zm+xD/jCuuxX/rsv3Vd/dKud7wsXgra6Sop3F0TmxtBLXtN2sAOjgDxVk3cbd0tJTuo6wOEeZ7mOawvaWv1ex7Rc8STexBBINravIc3CKw7dVWHy1TX4exjafsWNIZE6IdqHvLjlLRrlLNbfBV5SCIikEREBERAREQEREBERAREQEREBERAREQEREBERAREQEREBERAREQERFAIiKQREQEREBERAREQEREBERAREQEREBERAREQEREBERAREQeiIi4BERAREQEREBERAREQEREBERAREQEREBERAREQEREBERAREQf/Z;" vertex="1" parent="1">
          <mxGeometry x="763.5" y="780" width="80" height="80" as="geometry" />
        </mxCell>
        <mxCell id="iPtHKylNL2sxlNdy4_Nk-39" value="" style="rounded=0;whiteSpace=wrap;html=1;" vertex="1" parent="1">
          <mxGeometry x="450.25" y="775" width="140" height="90" as="geometry" />
        </mxCell>
        <mxCell id="iPtHKylNL2sxlNdy4_Nk-40" value="" style="shape=image;imageAspect=0;aspect=fixed;verticalLabelPosition=bottom;verticalAlign=top;image=data:image/png,iVBORw0KGgoAAAANSUhEUgAAASwAAACoCAMAAABt9SM9AAABaFBMVEUAAAD///81bpv+2Uo4d63+0UD+zj44dKg1bZ4AAAM2dav8/PwEBAQDAAA5caL5+fns7Oz+2kYAAAjm5uYiQVYnJyeUlJT91UJaWlqFhYX/307/zjczVnH/2lceMUQzeLHeu1b53l9Afa06Ojo1bpj/0TjAwMAAAA4mGQYQIS330F8sIwAwMDC0tLRTU1NeXl4xTGY5OTnX19cAAxfXvlv/0UoWFhZxcXGnp6f0x1aOjo7GxsasrKwDFSE+bZD/40334G3/yUaOeDQaEwDPp0IbGxttbW19fX0PIzgrVng3d7cZKzhRfaQ3YX4sVXs8gr8FFCYTMk8AEzQIHDExd6IAACOci1LAsVLCqViulklPQBNrVCHAn0gwJhImQWF5YxtfUSopRFHftFsyWm9qXiziukBBNyTErGj453NFbYrs1ln/6l49NBLiymYpJgWVfC58ZzX0zW19bDo5Jgq9lj9dRhHJpjuOcC0ncUYEAAAO2ElEQVR4nO2di1/a2BLHD48AgYRHqKDSSAUCakEURaxYqnZbH7tu7d3erbb2sXfbe+9223117/rv35lzEkhCErW1iyT51fUDSczmfJ2ZM3MmQUJ8+fLly5cvX758+fLly9eXFj8kURRHfVHXUwBmGBbuEEZ9ZddMwAVhDYkIPqkh8RJvh4XnJd+4DBJobLq7tzej197eGu4UffMyaf7GfqVkVvKb3v7STA14jfryRi8IVIzD3hKAKlro4KAYLgVv7kkETQ9nx1Ff88gkSaIoiGR+vxR2VDF5+DXxOCyI6pgu3Pgm/KjoCOsgnvzm8IgQ4l1W1FCE2relR+ewChfj0WSpdxemgVFf8iglCmT/0UGxGI3ak4rH41FUsnfkZcvCkc+UDorRcNHBtOKaooe8p2dFkVTCxVIpXOrNHB09hhkxbmNW0VgsGQvOeNgRIWatQMKArO6ihx0dBotho0MyUslkMgZK7te8a1oA6y7CKpXQZIDW45IjrFhv3rtBqw+rclfkqWkZLUvng0yVGY9bVjhcCieP6FLWebDiwRs+rGIJLQZgzcA7J1hRT8Mi4IaIJfYP9MK7Pf08qItWQRRGeB8WgCnGHtPUwSa0q7CC3nZDzbIgvUpGwwcHPixbDWCFteUY62jlwzLAQlyAyIdlKz0smASjpagPyyCaTw30XUlXQtP4Xioln0TBynTRKqiDRX9ekoi2Eujq5Xna39JwQbbwUyVoVqXXqzyJ2sACPhJPYQEu2mkc3Vi+uGhxp3ZQJZ7wd1dqVCs6SdJKLx61hgWqSUiIZ8hcXSwKvNDvoApWbVXWW+0VddHK4IaGk7nZBwlhC1K1viT9G7YFvGzln5WoDSzy/dNjppOzZ9jycKcbYqgCS/hu6bCSZKIBqtJ/2Y9ZlWCsFLSDtTqdCYUyGfg2Pbv6nLg0ZomiJJKZWNhJWtpuxNSn9QRhhTIhGVChMtOnoiTg78Ft/ogmsOTcIBwqnu1gMVahvDK9+pGe2G32BenRfti553VJWJkQp0zfeoFm5TZYIvn20YETLC1tH4pWNrDyCtduK5mnSEoa9eiuWi+Blbl78xmw8nmO49qccu8V0HKVZYkC2SsdhJMODULGKpl0gFXRBXhgBaTynKJ8mHPT/VsihfWtY7xynAcNsDJ5hIVmxVSQd1zWThTFr50nQi20O9DSwcoPWHH50KpQcxMsKGBuOsLSz4PnwpqWday4vDL72l15vHi3cuHQ7gBrxgIWp4ROXDQb4v0cN0rO934wyzoP1p7qhnpWbYX7cL826jFemfB29kPbfDQexX9JjZRTgO8d8VAb5kOcSfIzF1mWKK4EnUO7bdpugHVYq4nv7oXaRlTttvxq1EO8OgGsPXsvvDCsePAHwj+bzmQMEYtTOC50OuohXp3AC2dsYWnRymkeVC2rJwhkx8wKYCmRW6Me4tUJYNktN1wstDNVHsO5VjFpN8esyL9GPcSrE8Dat6lzLgGrslQTyPOFCBTPBlqRdmTbRbAgc7hpBQtnQZa2RwFTDP5VrEVvZPtBqEnkK4MPRiJchCu0I25yQ4C1ZAXr4vMgUJzBFeQdWTGwQhXg69aoR3iFcoQVx8RdtSkbWL0fbxxh5+v5QsibsLRoFY/HksFK7/CmnZZevpynT2MAK07xNqzkk97hzLxzuULr5NsnW8Aq4mlYwR/nL9BXfvHmVA4pwKrtPVhRNVwdxCovV2hjee7196e37PRWluWhgtBjsOLFePKlhKheP93amv15OiRby5y0exEWsNrHBed//+e/9+5lQv124LC8C6t/p1o8hg96kTdb08BjGr8y1rJE5TFYsd4SEcgbMKtpVOaeDSuvwbppBavy07xE3r/7OTONuGiPOUNv+RiIbfAYrJliMTpU4lR+rNXIMTMru2CVtwxXEZ0K2xFlddQjvFLNh61g3QDD2pr+fFihX0c9vitVLRgfLp4rMzz5fvYKYMnPRz2+q1UvHh66Y7vyHSFPHb3QOVr1tTA36uFdoQSeLOETvSZYP80T8cM9R8u6GKxTF93rgI3DvRL1QTOsua3Ptiyu0D5zESyeJ8JKL5mMJp8Y7tiuzJNftjI2mGyildmoAJayMMe7CxZ5WYoXo08MD05cDSyFOyGSi24M4XmBP6oUD+LB6NXDKshzkuQey8L+vUBuJqFwNnRxHGFdLLSD5F+Jq26ioR90uNKLfQlY3KlYk9x0mySPz6CQmWBYnQeDfVi3rWFlLGBpXqeJ49rwpn3nPb/ivuedRLKkfzgcW4HzvBUsrJ3zeL9HX3paFBRaFJfngNiqm/LRgURBWqrEtEYg9lQB1gtLWCHaos8zcVqgLwwMK7INsyBIPr7vJg8cCB/2utFjzUHNsqRftu5ZzYRcXtELSQ2Jy8u33tAWmRslwpQ4v195EkwOMngrN5TbXD70buEc/X5Mnwpz6UfkYmoK6VBtfqmvNfLRKsBzivxq6AlEQkxv8ZSQX7nTsnDCEkwdQvH2rAkWzoOKMvsaHzzsiz33KklIZvBRwgLBKsedsIYF+G7PmmI7TdzBsuas9OK+iyrmS8oGVpujMesOisWnO6q2fnPn3HcRDcNSkwWwLSWvSZePhs6Ie+7hvqRsYLE7Zfqk+rC2C6EdFz0dcEnZwMLcnGtzJrNCy2qf+W6opu0ZysawMANbFEg/aX0DsPI7PiwGK2O1gpWPbMtvP8htbKVSWL4bDpIGs5Tt38/ei89O2mhcPiwNVt4SVmHhfzTvPMGbkn03NCcNRrVPoKaRajXxre+G58N6TvBz0GvkFKKWp2GJhL8/26aolGEPpDlD5hVWhQIPsLg25lmeTUpFsJNVXBdtDz+Oo+ZX+ROMUuCGtwpcpCD/4V3L4kWJnOAdbFzEhlVEgQCPH5cF02GkUFj4w8MBXpSkuS2YCLn2MC2thSrvfBSfPQ0VoNqJ/P7Cu6sO+PE0ZGcBb68dghXR6kEl9PadDAXj9nZEPnHrJ0BdQIKEX3/KVq3nfuMLjKuwHYlgDn9HdOuK+8V1MpsvcLjYoHB05Q+ckra6VFaUGW5Y/SgR0duw+Br5Y0FWlEKk3QZKBXzmhAYr2FTQOl8FhZP//FirufvzEM8XPhp3+2QBQHE02wLj0t/1UVDA5gr5hWPITmuS12GBZwGE9zvHH+QMLo+222poh4gOqLBNL384eY23D/LE626IeTw2bsjc85PVtzLUPRHasoeY3pblhTu3js+wlq65/WM2zRLYfwJ7oQ4e/waWIAi8QG1m7tnZr19R/fXX6fHZb+/vE1x1ENS/Ocp7LM8S+ibirXFfTg8WyyikVQdNTPiw7JULoFKAqElfBcqOh7Ou8990bddOU5RQGrxvkmGbsDtS99d+/84LvE66OCwmHxaFRd0wcR4sT8sE61zL8rTMsAL1UV/RNdYAVj03NTWVy62x7UL/20CCMLzNuEeX0LOXbsnwBZq2D2CZ9mLmJRgHK2iyPpk+tWUFgeAaWEx2sHypor/15Vy1lc52WwM33Njd3Z3aYG64Ngm7s+lWd73MfoII9Wau0W1ls9lutbOmlpLMKx8016vdFqhbXe8sTtBt5Vw3nYbzb9S1o8ZVAlnsJgI6mQL8YiMFWYS6r4FcJqtp/Q+kcwNWk92U/lSBLGycaPTfptbXyNpoh/uZ2gAWhsH3YSUA1jJ7pe1swM51+lb3Iw2VVrMVMO4ITMHGtPqabk+P7wSLQXh9ML6ERZ41kQqoxpLSjC2HByb0hDdo8EbqqYR2ID0VPVMCBBvp8Yn0+OZuAunQsWm0EgFzuTORoDtTKfWQplpvJ/T+1sIzbZjNKhDIkXravLEx6jF/qiACZZkhpBqdTqdKXxth1WFDo1Ou15dbdNBT/cWJxm7noRqOEssQ21TjTMN2NlO0NifUYwOpqcmmFroWRz3qT9YuM5JsXXtjhrXcbaqHThlhtejGXB9ACw0zFdjE8NVQ7YqQNHVZVjdtsGPXx3ZCrDLvK9Prt1l1UJNJxqUPK0s3MnsKTJIyGCW46iYer8ICKmXmg+p8mWWmN6awBMJCSpc4wYKMIAdJFYtaJlh1zbJUs1mmSVcf1gaLV2VWATXo/yw1MZ6wcK5DbbB3FrBgWA821cnfCtayBqtLD6C+qcECK1tnP6g2QnY1oOOpekrzLZQlrIfGNNMEq6zBavUDGXjtJn3TUL08kFJhdVwOC1MLw8xvCyvRh0UGsBpugvUgpQ3LOmYJArpgKpDu5prNC1hWlk0H69pZ2YtAncHK0QR1bGMWHSNMUGt2AR5fJBItzCzKjrCq2osBrKqWjARo9iGocW18VzXUMVbpGwtYU7Sy6eDesjHPMgV41YbY1j6sMnNilpNRsAncPKa0qOXgcHbL9Qla9FFYnT4sup/OlstWsPqWVVdPlJ2aXOx0VVgC885UoLqmVdSJsc3gBaLGGlWJIVgP2Yv13d2pTUc3JNWAcdpksFibCM7QyqrlZGvEY/50CazSDeiLXQOssgmAPSyYWBOs4tHWI6oYv7raL4GuPQTO63Jfc5WzuNyiW3CBckSrlde0LGBgeFYZfIq61mKKEU9o4Ks0NmVxyUL9dSSwMBprPcgZl1FSpJ8fAay1qtGyNizLHYpguWU8tMHyiIZuU2txXIM7FQ7nQWczm0Kls63qRlOd5ANqydusplM0P0qlW9V1sKENOC6bZrGnnsrC6/QiO9Eknifd2qhS+Jt0o8AWppF9q6Pd+jXuWltbU4chaCVjV9s3sbxcn7jE4vkmhZUbcCk/7HQWx3v1fVjqDX8sh6ALUp9yBnWK3SWCbhsZ2/TKLNYtVb+T5RTOXIOMSO2POjVJWT2jHrXMZsSyhoed2mVNVsKALGfVaHwZU1jM0cUv/AkW6BPpL3SJ10dCP9NOBZqXgdUMpLq7i+X68uSGuqy//uWu8rqo3grQ7BFXiC/jN5P6fIzmVOPb87qw1posbaCr6ZeQHhadCx+6JZ7bCwe4iGnS7iXHaoQVSE99meu7XqKIMFpf0i6aAX0rOjvpmkThS2itU82qsNKNjo/KSXQumGhONpuLdIndZ+UgY8nno/Lly5cvX758+fLly5cvX77GQv8HVQQT6ByJZy4AAAAASUVORK5CYII=;" vertex="1" parent="1">
          <mxGeometry x="457.75" y="785" width="125" height="70" as="geometry" />
        </mxCell>
        <mxCell id="iPtHKylNL2sxlNdy4_Nk-42" value="" style="shape=image;imageAspect=0;aspect=fixed;verticalLabelPosition=bottom;verticalAlign=top;image=data:image/jpeg,/9j/4AAQSkZJRgABAQEAYABgAAD/4QAiRXhpZgAATU0AKgAAAAgAAQESAAMAAAABAAEAAAAAAAD/2wBDAAIBAQIBAQICAgICAgICAwUDAwMDAwYEBAMFBwYHBwcGBwcICQsJCAgKCAcHCg0KCgsMDAwMBwkODw0MDgsMDAz/2wBDAQICAgMDAwYDAwYMCAcIDAwMDAwMDAwMDAwMDAwMDAwMDAwMDAwMDAwMDAwMDAwMDAwMDAwMDAwMDAwMDAwMDAz/wAARCACcAJgDASIAAhEBAxEB/8QAHwAAAQUBAQEBAQEAAAAAAAAAAAECAwQFBgcICQoL/8QAtRAAAgEDAwIEAwUFBAQAAAF9AQIDAAQRBRIhMUEGE1FhByJxFDKBkaEII0KxwRVS0fAkM2JyggkKFhcYGRolJicoKSo0NTY3ODk6Q0RFRkdISUpTVFVWV1hZWmNkZWZnaGlqc3R1dnd4eXqDhIWGh4iJipKTlJWWl5iZmqKjpKWmp6ipqrKztLW2t7i5usLDxMXGx8jJytLT1NXW19jZ2uHi4+Tl5ufo6erx8vP09fb3+Pn6/8QAHwEAAwEBAQEBAQEBAQAAAAAAAAECAwQFBgcICQoL/8QAtREAAgECBAQDBAcFBAQAAQJ3AAECAxEEBSExBhJBUQdhcRMiMoEIFEKRobHBCSMzUvAVYnLRChYkNOEl8RcYGRomJygpKjU2Nzg5OkNERUZHSElKU1RVVldYWVpjZGVmZ2hpanN0dXZ3eHl6goOEhYaHiImKkpOUlZaXmJmaoqOkpaanqKmqsrO0tba3uLm6wsPExcbHyMnK0tPU1dbX2Nna4uPk5ebn6Onq8vP09fb3+Pn6/9oADAMBAAIRAxEAPwD9/KKKKACimTn9y3z+Xxjdx8v51l+JvGFl4S0K/wBU1K+stM07S7aS7vLm6lEUNrEiljJJIflRQoJJPQUAazHApu8+tflZ8cf+DmvT/HHxPvPh/wDsp/Bzxr+0l4osn8q41DTIng0a3yCA4lRJGkAYZ3ERRkZ+fisfSP2p/wDgrR8Q3F3a/Af4BeDYH+ZbPVruWaZVHq0d+w3H8PoKajN/CiJSgvjdj9a1fJ60522qTnFflCv/AAUX/wCClvwXmmuPGn7H3gHx3plou+RvCGuvazOBxhQ89w7H2SJvp3qtq/8AwdmfDj4WeHdRs/ir8FPjT8L/AB9ZWCXMPhnWdJMb6jKWwY4pXWNlXv5kkaAgcDNJpr4tAi01eGp+snmgjhqPMOfvfpX4/wDhf/gpF/wUq/bT0+LXPhN+zX4B+Fvg3U1E+mXnjW4llvLmFvuvtaWE4IwQxgCkH5S3Wunsfit/wVp+HCi61DwF+zV45jXJezhuZoJ5ABkqhE8Shj2JyM01DsmQ61NfE9T9WfMIHByfSmrcCUkKQCvUAjNfk1N48/4KoftSRPeNpHwV/Zt8OqTHIbmePUL2EDrK7+ZOpXI/h2YB5yMg8Bqf7Lv7aE2pul9/wUu+Gdjcy/OsUJtI1U+gXavHb/HpRCE5PljF6DqVYQSbe5+0a3YkbAOAOvQ/1qRJAzYDZ/Cvx+0/4Uf8FRfgX4fi1XwP8bfg38ftLjBmeO7hhV7kAfcWTZEGJ/30/wB4da7P9lj/AIORIfD/AMYovhV+118Mtb/Zv+JL7EguryORtB1LJwJFkdcwozZUOXliPH73JpTTi7STHGTfwtNH6o0VR0bWItctIbu1nhubO5RZYZoXEkUyEZDI44ZTkYPfHGRzV6g0CiiigAooooAKKKKAGynbGxzjAznGcV+Pf/BZf4jeMv8Agp5/wUT8IfsMfD7W7nQ/B1rbQ+I/ipq9k379LbiQWoyNuUiETc8GW5iB+VHB/YJ2JfGTj2r8Lf8Agn58Rrh/F3/BSn9oqQtD4it/EFx4R0yfAZoiss8MbKDlQAzQnAGDgZrSlS9rNU+7t95jiKjp0pVF0TZ0/wC0H+3z4f8A2IdBPwK/Zb0jSPBPhLwswsr7X7W3SS51S7jJEu1mDBjkDMr5Y4baQAK+S/GH7SvxH8e6lLeax8QPG+oTysHYy67dFQR0wu/aB7AAVwiYtCIYycKu0tnmToSzH+I8A5PTcakSYRsC43L0x9eK/Z8uyXD4anGnyptrsflWPzOvXrczk18z0vwP+2z8YfhpeedovxO8e2zINyxtq9xdRKQOMRSF0x/wGv0h8Rftt+If2XP2IvDfiL482mgfEL4ieJ5k1Lwt4evNOgR9OhCqy3Ux2tsZdyOx+Vsuqj5ga+Cv+CZf7PMP7Sv7anhDQL+ET6Tp8o1nUAwyjRW4Emxv9lpAqn/exVX/AIKM/tKS/tU/td+L9ea5WXSNPvJNJ0KPOfLs7d3jWRfTzSPMP1HtXlZhllDGY5YalBLlV3ZHbgcdXw2FdSc27uy1Kfx0/wCChfxh/aP8Q3Goa9461y2trl226dpd09hZwjsqpGRvUDu3zZAJNed6J8WvFnha7+0ab4s8UadPuDebbavcwyZBz95XB/8A11z4RVPCqvrtGN3ucdT7mnKxRsgkH1FfSUsvw0KagoJfJHj1MfXqzb5397Pqz4Jf8Fi/i18NQ2k+M5LH4qeELvbHeaT4iRZJZIcjKi4YHnoQZAwyBxXY/Gb9h/4d/thfCTUfix+zhA1hdachl8SeBHwbixfO5ngUHIIGSqDKuBxjpXxDCogkLoArk7twHzZHIOetd1+zT+0j4i/ZN+Mel+NfDVy0N1pzhbm3yfKv7fOZIHXuGGeeobBBBANePjMnUJurhPdflon62O/D5nUlFUa7bT016HK+APHOv/C7xNDqvhbVNU8M6nEwkkk065awuGkDYCttwODwysDzweCa+2/hb+3D4B/4KDeDo/gl+1t4f0fxLpGqOLTS/FzxJbXulzuMB2kI/dOpx++TC9dwK5Fc/wD8FRPgR4e8beG/C/7Q3w8t0i8GfEcbdVsFAB0fVAGD/d4Bcq4I6bkY91r4umwkbcLyOdx4YehPdfY8H0qJYKhmuF9pOKjKOj73NVi6+XYtOMnKLR+iv/BMT4r/ABH/AOCP/wDwUcsv2K/ih4gufGfwx8bWcuqfCrxHdgrcQJ+8b7I/XIIikBTdiN1XHyyoB+xKyn5c5O44/rX4eftuLqHibxZ/wSj8apNv8QDxXHpcssh+aa3kl00Sbm6kLHGwHpv9zX7grGRMpz9fT/PT8q/Ja9FUqs6ad7M/TKNZ1oxqNWuiaiiisjYKKKKACiiigBksW8ccHI5/GvwT/Yo0m40H/gnr/wAFEdAlhK6lo3xjubu5iP3/ACZLqHax74whb8DX72y58psDccHAzjNfj98K/hlJoH/BU7/goR8CQVKfF3wja+MtFhYYE9xJaOpZT1O2WUdDjIPHFdGDmoV4SfRr8zmxkXKhOK6pn5ys4EqrjqDg/Rjn880vmCEhyu8Kc7fWmxgsq5BRVX5cjDHnGD7kDP4VJG2yQH+7yPwr94pybjCa6rQ/GaidpRe6Z93/APBCzwXqWt+I/jfqejW7XGu6f4OGn6cFbYwuLpmKYJ4HzQdTwAD2zWTZf8EgPDnwotLaf40fHfwL4F1G5IA0y0Vbq5VjjEbStIpz/CdsTDnhiSKvf8EcPEuoeGvhL+1Je6XeT2F9a+D7W6gngYpJDIgvyrqw5BGT0/wr5I+DHx11/wCC3xo0fx/ps0Ooa/p00lxLNqga7F2WXDmUtlmJDN82cjPXFfK1MNjKmNxMsPOzVtt9j6KGJo08Hh1WSad73Pbf2nv+CbD/AAe+CQ+KHw/8eaJ8Wfh5BKkV9f6cqxz6cSQCWCsVkQll+dSpGQDHjLj5fSRJEVo2Lq+cE8FcEf0Ir9K/2E/2vdX/AG/fjB8ctB8R6NounR+MvAEjrp+nQlLUyWpEIcknLP8A6TtDEkgRrzwK/NRomtbh4pBl48IzAYG5flPA4/hrvyDF4icpUcRrKPc58xw9KPLWo7SEkLCM7du7GF3HAz2r7N/Zs/4JVWHif4VaP47+LXjWTwFo3ihDJoumafam61e/i5YSpHh2AKYbYkcx2kMWUZx8YXUjRW0jLgkKeMkZHfkcg49K/RX/AIKefHzxh+z98VfgZ8Rfh9rc2i2GofD2Oz014reGWBVJjkkQI6MnKGHjHGzjFRnNev7SjSovlck9iMso0/ZyqVNbPqel+Gvg/wDCDTv+Cc37Rvw88C+MfE/iu08OaTc+JJNO1zT2srjw/ewQNPGVBiib53t4yRgjAIxhmB/J8nzIz0ctFjMY3KWYHAGe+cCvvf8AZe+ImteL/wDgm1+1p8Q9au7jVfEvif7LptzdytiR/tGyJxgYAGJ+gAAHTFfMH7C/wNk/aK/as8A+E4oi9pqWqw3GoxqdoitIWFxNyOhKRso75cVxZTJ4WnilUd+Vp697XOrHVPbzw6grXTPtX4ofCtPE/wDwVD/4J2fCqIeZ/wAKr8Hav421W1mHRHggghYjsVngbH0r9bLaQynOCACRn16//Wr85P8AgnmIP2sP+Czv7U/xpWOO48P/AA6hsPhH4dukfcjz2wefUQn93ZIUBxx85r9H4/uqPSvyyrV9pUnU7s/SqUeWnCHZD6KKKk0CiiigAooooAR+EPXp261+Yf8AwUkh/wCGWf8AguX+yV8bP9RoPxKhuvg5r0irnbLcPJJpwPu885y3ULF1xjH6eOdoya+Ff+Dhj4AX/wAZP+CZvi7X9DVz4q+E89t8QNFeIfvIpdOcTSuMcgiFZCSOcAgcmmr30E1dWPyg/bi+DzfAf9sD4geFzv8AKsNYuJrbgKpgmYTRnHXAVwOPSvLd4TkruHp619lf8FZfsXx40X4N/tDaEsc2hfFzwhbtNOi42XkapIQx7Fkl2hRg/wCiuT3z8bKCScPsOCQcZ5xX7Zk2L+sYKE10VvmfkGaYb2ONlfZn21/wSwP/AAjf7J/7WviL7sMXhO0tFHXBdb/19itfElsxjQsH2KAGx6Ajn9BX2x/wR2vrb4p+HPjZ8F7yaCzuPid4aQ6Q0hIWS7t1uMocfNjbKhIB6RnHJr4x8X+ENR8CeK9Q0PXLK407WtGuRaXlncDy5rd0YqVdfdgQD0ZSCOhrLK5xjmOJUtHp+hWPpN4Gg4q61PsL/gg5A0P7ZmvasyGLTNL8C6jc3TkkKsZntQoPueT/AMANfH2uvv1e7aNgYpbmSQey7jgfmSa+2/2XJF/Yz/4JdfEP4p3kfk+K/jBMPC/hqFvv/Zwrq8gB42/6984/5ZL618MiI2iLGH8wElWf+8VA/wAWqMslKeJq4pbX5f6+83x37uhTw3W1xsu3yyXztHJ4z05r7u8AWUv7dH/BI3UfC9rGb7x78Abw3thF96S+0olzhT1JWIyIPU26ZzuOfhRDtYEdQcivaf8Agnz+1Rdfsg/tN6H4i81z4fvX/s7XrUkGO5sZDhyQcjMZIkGMHKY6MQevNsNOpCNWkvehqvl0+Zy5dWhBulPaWn3ntv7Bs7eKP+CYH7VWgtPE5srC21mNgMBxHGZC5x0H+jLj/daqX7A+uQfsH/sP/HP9qbVYYje6FpMuheDoZc7b7UpVVUA7nNw0EZx2EmOlfWeqfsPf8M7/AAl/aE07wiILqy+PdxZ6F4OgicSfur2IoeucRwi4nYk/wQ57knhNU+CGi/tZf8FAvhZ+zF4ajivfgr+yZDZ+MfH0wP7rVfEZV2sLKQ9JNh/fyxkkEvtcHbivzzM865qdV096rV/klc+4wOVKVaDltFaH1h/wRq/ZHuP2MP8Agn34D8J6sJ5fFeowPr3iaeck3E+qXp+03DSseWcMwTJ5wq19UhQOlVrQ/MHJUlmYfK5YZJzz9AAPbGKtV8iklsfUhRRRTAKKKKACiiigAI3Ag9DVLxBo1r4g0S7sL22gvLO+ia3uIJk3xzxuNrIyngqwJBB4wau1Hd/8e7cAg8HPTHv7UWvoF7an4ofs6fs53lv8A/2jv2HtSmnu/FfwJ12Txp8Mjdg+dqGg3BaW3RSSSzKWmiZucfaVA6DHwkkm4liWCspUI67SpHB35+70P0/Cv2E/4LTfs6eOPgv8RfA/7YvwW0ptX+IHwWiez8T6FHEzt4t8NSMDcQNt+YvD8zqVBIDFiG2KK+dda/Yf+H//AAVYuYfjJ+zN4+8KPofiiRbjxFoGpT7J/D91IdzRywRqzxlhvPlMAGHKb1IJ+z4Sz+nhlKhitI7r1Pk+IMleJtOB85/8E9v2cfHf7R/7SWhx+AdRvND1DSJo9Qn1mFG8rRIVOPMf1ckAKh+/kdq+iv2s/wDgpR+wr+1t+1pqHwz8T2/jfU/FWl3UGkQeOPBdj9sTX7w/u3hi8hX88K6lVk8h1OWMbBc1ueBvjp8A3+NGifsJ/DL4pLZWviayvZ/iN480nU4I77VbmFAP7HtLrBiWaYedvKljDDBJEn71/Nj7nRf2O9H/AOCcPiWSH9nD9ieW48UWzm3svGWtapDqDxr/AH0aSdrjBIHylolzjngCuXMM1qY3FuWFfIl1vZv1Zvgcujh8MoVo81uj1O3/AG8P2HvB3xx8P/Dn4LeG/idpnhzxL4B8PGLQPC18YmudVUIiGSR9wYTNHFuG1O0p6ElfyP8AF/g2/wDhx4u1Xw7q8LW2p6FdvY3EJ6wyxsysp9sq/PX5RX6d/sbfsNeKfA/7WOh/GL9pDxVp2heMdd1gW/h7RpdVga51fVJI22om1mBVYw5EEWflTeWVIyjfCn/BQhEl/bs+L7blJHiy9K4YZJErqwxjsSfzr6XhmvUWJlhlNSja/wAz57PKUJUlXcWney9P8jx+pdP0ybWdStrO2ga5uryVLeGMdXd2CqOhHUjqMepA5Ea4zz0r0j9jbQm8VftdfDDTotwa68U6avAzgC6jJ/DAOfavrsXWdKhOa6JnzlGiqlSMO7R+r3wA+I2jfsXfALRfhB8R/jF4EtPi/YaTNN4el1uMLb+HnuIXW3jnlLhWVWJADOjupVV3bgT85fsc/sxftEfsJ+B/E9no/wC1B+yslv431+fxBrHirWtHmvNR1i9uiB5jv9sjiycYSJBtxn+JjnJ/4KM/tS/sGT/toeObT4nXPxbt/iD4buodK1w6DYXU9lJJHBHtRdiuq/JtHy7clc9ea82+H3/BRz4GfDfXPI/ZO/Y1+Lfxh8fv8tnq+raPci0sXc4V3lcTPCi5LFtkSgDl1GWH4tXeEnTc4t83bor9j9Sw0MZCcackuVLc9j/bW+Of7XP/AATt+P8A+zprp/aO8PfF7Qvi541svCt34Tbwjp+mpdR3LAmWBoEaQxAceYHDKzRbiQzZ/Xe0dmUAyeZtOCxABPGcccZ+nFfmJ/wTV/4JpfGz40/tZ2n7Un7Y+t2N38RtKt3tvBXgbT+NN8Gxvu81wuWUS8gAI7kdXkc7Qv6gJCsYUKMBc4A6CvMPXHUUUUAFFFFABRRRQAUjoHXB5FLRQBBNZI0LKQWB6hmJzzyOc+uPpxX5+ftA/wDBs3+yX+0H8Ybnxtd+EtZ8LX+oXDT6paeHNXk06w1BmOW8yIDCbm5Pl7Mnk1+hLKHXB6UoGKAPi74+f8ECP2Wf2hPhT4a8K6j8OLTQYfBsIg0LVPD0r6bqdgmSV/fxndLtZiwEu4AnOO9ebR/8ERfiV8NdDg0fwF+21+0ZoXh+2UqLTWpbHWpYRjGBKyRkLjjHPFfox5KjHBABJxk4OaSWIGIgEqcYB9KG2yZJNan4l/tN/wDBPPTP2K/+CsX7EOszeP8A4l/E7xX4r8aX0Wq+IPGWsPeTyhLdWWO3iVVit4gXY7UGSSMk4FfPv/BQ1DD+3d8YFYncfFd6W545kZh+jV+g/wDwXe1Q/Dv9r/8AYU8YkKtpp3xXawlY/Km+6gjVAe3JR+a+Fv8Agqr4XPhP/gol8WIG3BrnVo70Ajg+daW8uR6j95+ea+14HnFY982uh8vxY/8AZ4xR8/McKTjOATj1r6M/4JC+ED42/wCCjvwwtwCIYLy6vpGAzsWCxmlU/jJ5a/jXzmJfJy+M7RX2d/wRI0+28LfHjx7491CX7PpPw+8CX93cztxHaqyq5l3eojif8M19xndX2WX1ZdWn+R8Zk9L2uKhF9GvzPrf/AIIHXKfFvxP+1/8AEO4tlC+Jfjjq2nRhhlWjsre2jBA6EZkb8vav0SFlEEChAEHRRwv5dK+Cf+DafwbqGj/8EnPBHiLVYfI1f4g6xrfivUExjL3WozeWw9Q0UcTZ9xX33X4l5n670sRpaxxyF1XDNjcc8tgYGfWpKKKACiiigAooooAKKKKACiiigAooooAKbOA0RDHAbj86dSOMrR6gfnb/AMHL37Mfij4/f8E2m8QeBoLq78YfBrxHYePdMhto/MmkFmJYpyqYO7ZFM023BLeTgAk4r5n+K3guy/4Lc/BHwd+0H8ErjR9T8bvosGmeN/CBugt9YXsapvADFfuEuFLBRJH5LA5bbX7SXMCywlSSA2Ce4ODnGDX5wftEf8G2nwu8b/Gq++I3wg8efEb9nXxpqcjTXFz4G1T7Ha3Lu25ysakNGDliVjZQSTxya7cBjqmDqKtS3OHG4OGKj7Oex8RfDz/gjz+0H8QdWWGTwRJ4dti+2S51m8hihtkHWRijEtj+4Bk8ZIGSOq+PSaV8HvgxqP7EXwB16P4nftDfHSeLS/G+r6RF5+m+EdJdwJ2mYH92qW8hVjnP7xydjGNB9Oxf8G8PiP4kFbT4v/tg/tL/ABO0F/km0IeIX0+wu0xwJk8xt5zg5GCSOTX2L+xl/wAE5Pgz+wF4Kn0X4U+BtI8Nx3yoL6+XM+oakV6efcOTJIOvBbHJ45NelmvEWLxsFTlZLsjhy3I8Ng5uUU2ztP2W/gZp/wCzH+z/AOCvh7o6sdL8G6Na6NAz5DMkEQjDEEnklSev8QOTXodRxoc5Prk+9SV4B7gUUUUAFFFFABRRRQAUUy4ZkhJUMSMfdAJ6+9fF3wx/bL/aP/aO8V/E4fD7wH8FjoXgDxvqXg2N9e8T6na3dw1r5Y850isZVx+8yQG5xxk4oA+1KK+RPCX7cPxZ+F37Tngn4c/HPwF4O8NWnxRuLnT/AAt4i8Ja/Lqdo1/BbvctZXMVxBDLFJJDG7Iyh0O3adrHFfWa3fmIpBKkkAqRyCQDj64PpQBYoqFpJBLtwdpPLcDb/jnpSfaMlsllCnOSpAI9ORQBPQRmuF8M/H7w54x+Nfir4f6dqFxP4l8FafpuqatAbVljit7/AO0i1dZSAj7/ALHcZCkkbRnFdot35katGDIGOMqQcf0oAkaMMMc/gcUNEGHOfzqKS72r8uN4GdvUkfgeB70fa/LbDEfN93B5POOnX05o8hbakjqEXoPxNVw43Ku7JB9NxBx0J6D8aklnZEPQEj5SegP6cV8b/HLUte/af/4KEz/BuXxVrvhbwP4X8KweIr600a7Nje67PPMyKDOo8xY0wpwhGSrA9auhT9pdLoc+Irukk+59jfbCMh9yHPGF6/lmmG6k3FhgjPTIO72HSvmLxj/wTH8MWPh55/BHir4l+DPEsCNLaapa+K766HnAHYZYZ5JI5FzjI2dM1wjftq/Fbwh+yV4I0nWPDe39oDxtrM3hXSrPU7Zre1nuYpGVtSddv/HukIWU4xndgdq2eFjJXpyu+vkRPFunHmktz7Yku5EfBaNdx+UYLfX0xThdMo2llDE/Lk5LevYDNfL/AIV/4JuaT4ltRd/E3x18RPiD4oljxd3UniO50u3ZgRjyra1eOOJc8AYJwRXE/GnwJ4z/AOCcmiw/EPwP4p8UeL/hto8inxR4T17UG1Rre03gPdWVxJmVHizlkZipVG4zg0LDwm+SMtSZ4qpGKnKOh9sidnkUDoM554/l1z71KrEmvkj4afGG+8df8FU2ttP1q9u/Bmo/CePWrG0S4f7IXe+t9k4jJ27jHI3IHRl9a+tYzlqxq0/ZuzNqFdVFckoooqDoGzAsnHXIP61+a/7AHxe+MPhDxd+0hb/D/wCE2l+O9CPxq8QyvqVx4th0t3lzb7o1jeNmz6ZOPUgc1+k843RHOBjBye2D1rwP9hb9mfXP2bm+LY1y7066/wCE8+I2reMLD7IzHyrS78ry1fd/GNhzj1oA+fP2ltH+LnjrxBpvxr+NHhfwj4F+Hf7Mthq3xBttC03W31fUPEmoW+mXSp5zeVHHBbxRtKwx5jyOoJ8tV2t2/wADP2S/G/x6+D+i+OfiN8a/i3a+NfF1jDrH2fwr4g/snSNCEyLJHa29qiBJhEMIWuEkZzkkmvqX4p/DXSPiv8NfEfhfWrf7Ro3ifTLnStQh3lFlt543jlX0G5XbJx6Zzivmr4O+Hv2mv2avh1p3w/s9F+G3xN07wrAumaN4o1DxHdaRe3lmhKQG7tFtZh5yRbQWjkKyNG5AiDDAB4d4s/an+L918Dda8J6l4h8WXVx8KPi6ngT4heLvB+iLNrtx4eWwTUE1CC0jhkPmut1aQTvDBlMTyRgYFdH8NviX4G1j4u+Bh8F/2nNYv9YbVoItb8F+PfFN3ctr2mFts5it9ST7VFcxAl0MKoC6qGwMqe88M/sQfFf4KfDVNe8J+PdIv/ixqvjafx54vilgey0DxrNcWf2V9OZUDyRW8UEdsIXALK1orMpLtmD4+/s8fFz9uCLwv4d8YeCvh34D0jQvEem69e6/Z+In1rVUNleRXRgtI/skYjaUx7DKzghSRsFAHg3iGN/2RP25v2w/iZf/ABA+Jt9F8LfAHhfxfLZy38LxatuXX2FncFYA8lvFsAjRSrAMxzkV9G/B79iPx347+GGj+KPiB8evi6vxM12wh1K5n0PWYbHSNEuHUS+Ra6esP2eWGJpFT/SEkZ1RdxyzGqfxk/Zb8Q6X+1B8X/Hd3Z+Gtf8AhJ8XvBOmaD4xinvbiHVNJt9Nj1Jmmto44ZUuS6XzDb8pUxcZBINb9la2+OqfsveE7bwJ8R/hD8QPAsmiwL4X8a6ppl5HqUmmCILbyXVvFIsUs4j2h2BhG5cMmc0AfNuo/tI/tE33wl8JeHoPiRJYeP8AVP2pL74dX2rQ20TQHSo7PUhhYmLAIVginCMQVk2rjqp9O/aM8a3n7JHxk+HnwW/4Xx8T9K074jR6j4v8UeNNbu01bU4LCx+zRfYNNYwNHatPLcRFj5JEcaybCHINcp+wd+yXrfxd+Heh6joniIa/p/gT9p3XfGs+uaqhil8TW8Q1GxubmEx4UtLdTM42jZtU/eypH2F+1P8As1+JPFnxV8F/FT4d32j2XxE8Bw3enR2+qiRNP8QaZdCMz6fcPGC6fvIIpY5FU7JIkOCu5WBPY+WPid+1F4f/AGa9c8MeLPhN8afiD8Q7a31ew0/xJ4I1ye81+PXNOubqK2mubeWeJpree280znZIsbrEylea+kf2hf2WvBf7UHxfj1nR/G2peD/ip4PgW0OpeG9Sji1G0gcBxHPCxIMbBiQHHST3NVNS8K/tEftCeJvDNjr6eG/hD4T0fUoNR1mXw74juNX1fW47c7/sSS/ZoFgjkfaJHyXePem0E7hi/GD4D/Er4Eftd6r8ZPhZpVn4ysvF1jb2PivwtNeR2dzcPbqUiubaVyEDhCoKsQGCc84I6MEtW4ytL8PmcWNlolKN1+PyJr74a/tU/Bu3ln0L4meCfidp9uDItn4m0JdPvLrHSEXFqUQO33QzowyRnHUeJeDP2pLX9p79vD9n3xRq2kzeH7rSn8UeEtV0y5kEjafrMUdu5hD8Bg0LFhjgjivoHUv2zfitrdm9ron7OXxAh1aQbI21bUNPtrKBzwGeRJ3LqOp8vccDt1HA+Cv+CXN7qX7Lmp6X4h19NP8AirqXiu48fw65pw8yPQ9YcRqiRhgd0ASJEZP4lznk5r06NWMYyVZJSel1br6HnTi5NSpXcV3PtNYlkBC7kUEE8bSeuR9ff/AV5n+2hc6fZ/sk/Eq7vzC1kPDeoeb5vRT9mcKP++sCvK/Df7U3xw+GGlR6V48+B2ueKdTs1/5DvhDULOfT9UCjAlEU0sckDMRyjDC5JzgV4v8Atu+Mfjb+0P4Djm8RfCPXPDnwU0+8iuPE2k2WoQ3fijWLIENI6LAzIkK4BZY2MpUNggcjiw2Fcayk2rJnbicVCVHl5XqV/wDgmjp1/p37Xnw6g1PzRej9n6xYl/7pvLTauOxVNgx/hX6MqNhr4m8SaD8SPBf7b1l8Wvh/8L77xh4U1n4ewaFBb/2lbaVJYubiKcBorgqUAjjVcccn2r0Rv2ofj2F/5Ny1A45P/FXaZ0/7+1pjoSqz9omjPAyUY2sz6YV8nGRRXKfBrxR4h8ZeAtP1HxR4bfwlrlwZPtWkvdx3ZtMOyp+8jJRtyANweN2KK857noxbsdaRkUmwe/50tFI1GmNW6gHnNCxKmcDGetOooAjS0jjUhVxuzkg8n8etPIB60tFAEU1tE0TBhhT6EjH09P8AHmvBLv8A4JjfBSa8vJIPB0djYajLcT3elWGo3llpdy85YzM9pDMtud5Zt37v5gcHjivoAjNGBigDF8C/D/Rfhv4WsNE0DS7HRtG0uBbazsbOIQ29tEoAVERflVQAOAO1bDQq4IIyD1GeKdRQAxolEYAUAKQQB25qI2yED5enTnkH1+vJ561YIzSbBSsgIhCoCjGdgwCTkj8aUxgkHnj3qTYKNgprTYTSe5XFnGAOCSMDJYkkDsT1I5PBoexhlLboo23nLblzu+vrVjYKNgoCyIkjCHIzyAOSTQ8YdSDnB9CRUuwUbBQMZHGoYcDg5yeTRTwoBooFZH//2Q==;" vertex="1" parent="1">
          <mxGeometry x="483.5" y="947.5" width="77.95" height="80" as="geometry" />
        </mxCell>
        <mxCell id="iPtHKylNL2sxlNdy4_Nk-43" value="" style="shape=image;imageAspect=0;aspect=fixed;verticalLabelPosition=bottom;verticalAlign=top;image=data:image/jpeg,/9j/4AAQSkZJRgABAQAAAQABAAD/2wCEAAkGBxIQEBIQEBAVFREVEhUXFhYYEhcVFxUVFRYXFxYWFRYYHSggGh0lHRUTIjEhJSkrLy8uFx8zODMtNygtLi0BCgoKDQ0NDg0NDisZFRkrKy0tNysrKysrLSsrKy0rKys3KysrKysrKysrKysrKysrKysrKysrKysrKysrKysrK//AABEIAMgAyAMBIgACEQEDEQH/xAAcAAEAAQUBAQAAAAAAAAAAAAAAAQMEBQYHAgj/xABHEAABAwIBBwgECgkEAwAAAAABAAIDBBEFBhIhMUFRYQcTcYGRobHBIjJCUiM0YnJ0krLC0fAVMzVTc4Kis8MUJEPxZNLh/8QAFgEBAQEAAAAAAAAAAAAAAAAAAAEC/8QAFhEBAQEAAAAAAAAAAAAAAAAAAAER/9oADAMBAAIRAxEAPwDuKIiAiIgIiICKlNUNaNJWNfXvk0RNuN+ofnoQZR8gGsq0mxNjdqtm0DnaZHk8B6I7tPerqKjY3U0X6NfSi4tzibibNY76pHeVAqJnexbpI8rq/DRuUoYx2fUbm/WP4KeenHsg9B/FZBFDGP8A0i9vrRuHQM77N1VixVhNjoO46D2K6sqctOxws5oI4hUxWjna7UVVWKkw4a2OLT06OzV2LwJ5YvXGc3ePMf8AaJjMIrWlrmyC4KukBERAREQEREBERARFDnWQCbLHVeIWOawXduCp1NS6RxZH1nYP/quKWkawcdp2npQW0NCXHOlNzu9kfisg1gGpekUURERRQpUFAREQFClQgKCpXh5QWdVRgnOb6L948968U2IOYQyUW3HYfzuVy9ytp2hwsRcKoy7Hgi4Xpa5BVOgdZxvHfXtb08OKz8MocLhEVEREBERAREQQSsVWVBkdzbD0ncFVxOqzRmt9Y6AvVFTBjeJ0k7yg901OGCwVdQpUaEREBERAUKUQQiIgKERBBKovcvcjlbSOQeXuVB7lL3Kg9yqIkN9BVKhrDA8NJ+DJsPknd0KHvVvNYgg6kG3xvDhcL2tawDESHcy86fZO8fiFsoKIIiICpzyZoJVRYrFZC4iMe0bdA2oPFAzPcZXbdDejf1/gskvETA0ABe1FERQT3or0ihSgIi8lwuBfSdXFB6REQQiIggqCVKpSuQU5HK1kevcr1aSPVRD3q3e9JHq3e9BL3qg968veqD3oEryLOabOabjpW54PXCaNrhu7DuWjucshkzWc3NzZPov0j52389KI3dFAKIIebC6xNG3Ple86hoHn5div8QkzWEq2wtlo2nadJ6XaT4osXiIiii0DlorZKeip5oXlkjK2MtcDYg81N3bLbVv65xy7fs2L6Wz+1MgyvJ1lwzEosyQhtWwfCM1BwGjnGcNVxsPUtyXyVQVkkEjJoXlkjHAtcNYI8Rw2r6D5O8uGYnFmSZrKtg9NgOh4/eMB2bxs6wg3Nc45a6+Wmgo5oHlkrKq7XDWPg3doOojaujLmHL38TpvpH+NyDYOTvLdmJxZr7MqowOcZscNXOM+TfZsPUTuC+SsNrpKaVk8DyyVhu1w38d43g619DcnuW8eJxWdmsqmD4SO/rD32X0lu8bD1EhtxRFCCCVaTPVed1ljp5UR4lkVpLIomlVnJKqPckit3yKlJKqRddB6fIvBKhFQXiVxbZ41sIcOrX3XXtQQg6Dh04kja4bQCiwmRVReExn2HFvUNXdZQojJY270Q3eQO02V1GLAdCssVF3sHygezT5K+CLEqVCKKlc45dv2bF9LZ/amXRlznl2/ZsX0tn9qZBwsKvQ1klPKyaF5ZIw3a4GxB/DZbaqAVWlpnzSNiiYXyPIDWgXJJRX0fye5U/pOk55zQ2VjsyRo1ZwAIc3gQfELV+Xr4nTfSP8blsnJ5kx+i6Pm5HAzSPz5Df0Q51mtY07baBxJK1vl6+J030j/G5EcTCuMPrpaaVk8DyyVhu1w8OIOojarcKUV9Gcn+XEeKRFrgGVTAOcjvoI1Z8e3Nvs2dhO2kr5Ko8RkpZG1ELyyRhu1w37iNo3g613XIjlBixamdHJ8HVNYRIxri27To5yJw0gdBu09RJG31c6weIYlHHpkkYwfKcG+K4dyjYRV0cucaueameTmPfM9xafckudfHb2rRib6Sqj6Jq8saFuush/lkDvs3WGq+UOgbqnLjubG895AHeuHog61Pyo0o9SGZ3SGNH2irCblWHsUfW6a3cGea5orjD6KSolZDE0ue82A8zuA3oN+pOUStqZWw01LEZHGwBz3dJJzhYDeulUgeGN50tMmaM4tBDc7bmgkmyweSGSsdBHsdO4DPfb+lm5vj4bCqCIiDJ5IS5tRKz3g133fIIrTAX5taz5Ubh2EfiiiNqxE/Cx/O8irzPVljBzXMd8od+jzVTPRYus9OcVpzijnFBec4udcujr4dF9LZ/amW8GVaFywxPmooIo2lz3VkYa0C5JMcqK4tSU75XtiiaXyPIDWgXJJ3LvGQuSUGEQOqqp7OfzLySH1YWW0safE7dSssismIcJgdU1Lm8/mkySE+jE33WHxO1c+y/wAtn4i/m4i5tK06GnQZHD23jwGzpQZvE8vH4litFHESyjZWwZrdRkIlb6b/ACGzpWw8vDgaSm+kf43LlGSptX0Z3VUP9xq6Pyzz51LBwn+45ByUKVAVOolzWkoqzxGa5zRs1qlQVslPI2aF5ZI03Dh+dIOqyoONzdQqjtWTWUMOLQPhmY3nM20kZ1OHvs22vbiDbgVzvLPJJ9A/Obd9O4+i/a0+4/jx2rAUNZJBI2WJxa9puCPzpHBdjyayhgxWB0EzBzmZaSM6nDVns4X6wbcCiOKotmyzySkoH5zbvp3H0X7W/Jfx47e5YLDqCSolbDC0ue42AHeSdgG9BGHUMlRK2GFpdI42A8STsA3rtmSGSsdBHsfO4enJb+lu5vj4RkfkrHQR7HTuHpv+6zc3x7LbEgIiKgiIg94Uf99B82T7qKcEF6+LhG89pH4Iojb8fb6GduIPYb+StxJoCymIx5zCOC16mk9AC+kaD0jQfBBeGReDIqDpFTdIirgyqk+QG1xqNxwNraOontVu6VUnSoORcoWVUlXM+nabU8Ty0Af8jmmxe7fpvYLUgFtWXWTb6eZ9QwXgkeXaNcbnG5DuF72PV06qCorIZOm1ZSn/AMiL7bV0zlApXVFE/NFzG4SAfNuHf0ud2LmWAfG6b+PF9sLtBF9B1KlcIaVi6+bOdYagtxy5yedREyxi8Dzot/xk+y7huK0VAREQFXoaySCRssTy17TcEfnSOCoK4w+hkqJGxQsLnuNgB4ncBvQdtyexGPFKHOmjBDrslZ7OcLHRt2tI3X4KpkzkvBQB3NAue4m73etm30MHAaOk911kLk3/AKaGOkDgZHFznu02LyLm3CzQOpbFieDvgZzjnNLbgG19F9un86VUY9FXw+ldM8Mba5BNzqACr4rhTqdge9zSC4N0X1kE7ehBYoslh+DPnZnte0C5Gm+xXDsmZdj2d48kGFRVqylfC7Nkba+o6wegqgSgvMkY8+tkd7kbW9ZufAhSr3k+guyWf95ISPmjQO4IojbpG3BC1Opbzcrm7D6Q8/zxW3LAZSUpsJG626ekbUGLc9UnSKkZFSe9FVHyKi+ReHOXlB5njD2ljwHNcCCCLgg6wQuWZXZMOpHGSME05OvWWEn1XcNx/J6qvE0TXtLXAFpFiCLgg7Cg4xk+f93Tfx4vthdqXOK3Jd1JXU8kYJpzUxW1kxkvGh3DcfyejpCqdTA2Rjo5GhzHAhzSLgg7CuM5b5IOoXmSMF1M46Haywn2HeR812pU6iBsjHRyNDmOFnNIuCDvVHzci2zLfI91E7nYrupnHQdZjPuv4bitcw2gkqJWwwsLnuOgDZxJ2Ab1BGHUElRI2GFhdI46AO8k7BxXa8jslo6CPY6dw9N/3G7mg9vZacjslmUEWx07wOcf91u5vj4bCgv8n/jMf832HLaawslL6Z2t0Wd1XtcdBze0LVsn/jMf832HK9ygrOYroJNgjIcN7S7T+PUiK+AUppYnSTCzy8MH1g0W6XHssvOXP6iL+O37D1Z4rjQqZKeOIODBMxzri1yHDNA7+5XmXP6iL+O37D0F3kp8XHz3eS1CjxKoa7OE8hs46HPLgdOogrb8lPi4+e7yWAo8nai9nMDQSdJc06OolBsOJNFTRl5FjzfODg4C9vEda0Ssm+CNvWd6LfnO0DxW64/VspaXmgbuczm2Dabixd1DT2LUcn6M1FWxtvQhs53F51DqHig33J+iEFPHHbU0dqLIgIglUqiLOaQqqIOf1sBhkMZ1a29G7qVuStuyhwznWXHrDSDxWntOw6CNBG4oqURFQREQCEREBERBDmggggEHWDpBHFUKShiivzUTI768xjW36bDSrhEBERB7p53RuD2esL2uL6wR5rxWVMk7w+UgkCwsLaL3RECM5pDhrBBHSNKqYjiE1QA2QjNDs4WbbSAR5lU0QXFNis8LMyItAvfS2+tS/Hqsi3ONHEMb5q2UOcACTqCCxxCZwvLK4vkOgXNySdTQt3yNwf8A00ALv1j/AEnnidK1rJbDDWT/AOoePgIz8GD7R95dFAURKIiAiIggi61XKPBzfnoxp9obx+K2teXtuLFBzZjrr0s3j2BuaTLCL+83fxHFYJjwenaNoO4or0iIqCIiAiIgIiICIiAiIgIih7gBcmwCCSVa0VI+vlEUf6hp+Ef73yWpRUkle/m4gWwX9OTVnDc3hxXRsKw2OnjEcbQAAoitRUrYmNYwWaBYKuiICIiAiIgIiIIcLrXsbydEhMkRzZO48HBbEiDmkudG7Mlbmu7j807V6W/VuHxzNLXtBB3hariGS8kemnddvuO8nbEGLRUpZHRm00bmHiPR+sNC9MkDhcEEcDdVXtERAREQERQXAayglFZyYlGNDTnu91gzj3autXNHhFZVHQzmI97tLz0DUEFGrrWR6zdx1NGlx6ArzCcm5qwh9TeOHWIxrd878Fs2B5KQU3pWz5Nr3aTfrWfAURRo6RkTQxjQGjYFXREBERAREQEREBERAREQEREFGama8Wc0HqWErMkad5LmtLHb2ktPcoRBi5sjpW/qqg23OaD361aSZP1rdXNO+sPNEQUTg9f+6j+sVLcDrz7EQ6SSpRBWjyTq3+vO1g+Sz/2ur6nyDi1zyPl4F2jsREGw0GCwQC0cTR1K/AREEoiICIiAiIgIiIP/2Q==;" vertex="1" parent="1">
          <mxGeometry x="582.63" y="115" width="55" height="55" as="geometry" />
        </mxCell>
        <mxCell id="iPtHKylNL2sxlNdy4_Nk-46" value="" style="endArrow=classic;html=1;rounded=0;exitX=0.5;exitY=1;exitDx=0;exitDy=0;" edge="1" parent="1" source="iPtHKylNL2sxlNdy4_Nk-39" target="iPtHKylNL2sxlNdy4_Nk-15">
          <mxGeometry width="50" height="50" relative="1" as="geometry">
            <mxPoint x="558.5" y="1121" as="sourcePoint" />
            <mxPoint x="608.5" y="1071" as="targetPoint" />
          </mxGeometry>
        </mxCell>
        <mxCell id="iPtHKylNL2sxlNdy4_Nk-52" value="" style="endArrow=classic;html=1;rounded=0;entryX=0.5;entryY=0;entryDx=0;entryDy=0;exitX=0.5;exitY=1;exitDx=0;exitDy=0;" edge="1" parent="1" source="iPtHKylNL2sxlNdy4_Nk-5" target="iPtHKylNL2sxlNdy4_Nk-26">
          <mxGeometry width="50" height="50" relative="1" as="geometry">
            <mxPoint x="608" y="467.5" as="sourcePoint" />
            <mxPoint x="708" y="817.5" as="targetPoint" />
          </mxGeometry>
        </mxCell>
        <mxCell id="iPtHKylNL2sxlNdy4_Nk-53" value="" style="endArrow=classic;html=1;rounded=0;exitX=0.5;exitY=1;exitDx=0;exitDy=0;entryX=0.5;entryY=0;entryDx=0;entryDy=0;" edge="1" parent="1" source="iPtHKylNL2sxlNdy4_Nk-26" target="iPtHKylNL2sxlNdy4_Nk-39">
          <mxGeometry width="50" height="50" relative="1" as="geometry">
            <mxPoint x="649.25" y="887.5" as="sourcePoint" />
            <mxPoint x="649.25" y="995.5" as="targetPoint" />
          </mxGeometry>
        </mxCell>
        <mxCell id="iPtHKylNL2sxlNdy4_Nk-55" value="" style="endArrow=classic;html=1;rounded=0;exitX=0.5;exitY=1;exitDx=0;exitDy=0;entryX=0;entryY=0.5;entryDx=0;entryDy=0;" edge="1" parent="1" source="iPtHKylNL2sxlNdy4_Nk-39" target="iPtHKylNL2sxlNdy4_Nk-33">
          <mxGeometry width="50" height="50" relative="1" as="geometry">
            <mxPoint x="526.5" y="806" as="sourcePoint" />
            <mxPoint x="576.5" y="756" as="targetPoint" />
          </mxGeometry>
        </mxCell>
        <mxCell id="iPtHKylNL2sxlNdy4_Nk-56" value="" style="endArrow=classic;html=1;rounded=0;exitX=0;exitY=0.5;exitDx=0;exitDy=0;entryX=1;entryY=0.5;entryDx=0;entryDy=0;" edge="1" parent="1" source="iPtHKylNL2sxlNdy4_Nk-36" target="iPtHKylNL2sxlNdy4_Nk-39">
          <mxGeometry width="50" height="50" relative="1" as="geometry">
            <mxPoint x="526.5" y="806" as="sourcePoint" />
            <mxPoint x="576.5" y="756" as="targetPoint" />
          </mxGeometry>
        </mxCell>
        <mxCell id="iPtHKylNL2sxlNdy4_Nk-57" value="" style="endArrow=classic;html=1;rounded=0;entryX=0.5;entryY=0;entryDx=0;entryDy=0;exitX=0.5;exitY=1;exitDx=0;exitDy=0;" edge="1" parent="1" source="iPtHKylNL2sxlNdy4_Nk-26" target="iPtHKylNL2sxlNdy4_Nk-36">
          <mxGeometry width="50" height="50" relative="1" as="geometry">
            <mxPoint x="709.25" y="767.5" as="sourcePoint" />
            <mxPoint x="858" y="927.5" as="targetPoint" />
          </mxGeometry>
        </mxCell>
        <mxCell id="iPtHKylNL2sxlNdy4_Nk-58" value="" style="endArrow=classic;html=1;rounded=0;exitX=0.5;exitY=0;exitDx=0;exitDy=0;entryX=0.5;entryY=1;entryDx=0;entryDy=0;" edge="1" parent="1" source="iPtHKylNL2sxlNdy4_Nk-31" target="iPtHKylNL2sxlNdy4_Nk-5">
          <mxGeometry width="50" height="50" relative="1" as="geometry">
            <mxPoint x="693" y="867.5" as="sourcePoint" />
            <mxPoint x="743" y="817.5" as="targetPoint" />
          </mxGeometry>
        </mxCell>
        <mxCell id="iPtHKylNL2sxlNdy4_Nk-59" value="" style="endArrow=classic;html=1;rounded=0;exitX=0.5;exitY=0;exitDx=0;exitDy=0;entryX=0.5;entryY=1;entryDx=0;entryDy=0;" edge="1" parent="1" source="iPtHKylNL2sxlNdy4_Nk-32" target="iPtHKylNL2sxlNdy4_Nk-8">
          <mxGeometry width="50" height="50" relative="1" as="geometry">
            <mxPoint x="580" y="877.5" as="sourcePoint" />
            <mxPoint x="970" y="527.5" as="targetPoint" />
          </mxGeometry>
        </mxCell>
        <mxCell id="iPtHKylNL2sxlNdy4_Nk-60" value="" style="rounded=1;whiteSpace=wrap;html=1;" vertex="1" parent="1">
          <mxGeometry x="463.76" y="612" width="110" height="120" as="geometry" />
        </mxCell>
        <mxCell id="iPtHKylNL2sxlNdy4_Nk-61" value="" style="shape=image;imageAspect=0;aspect=fixed;verticalLabelPosition=bottom;verticalAlign=top;image=data:image/png,iVBORw0KGgoAAAANSUhEUgAAAOEAAADhCAMAAAAJbSJIAAAA+VBMVEX///+IFxr8/PyBAACAAAD5+fmEAAD09PSIFRj19fXu7u6HExbr6+vx8fHo6OiGDxPf39/T09OFCA3i4uLX19e9vb2IAAjIyMi3t7fFxcV7AACzs7OqqqqFAwrPq6z06+uho6O+jY7m09OeT1Ht3t+UNzmnYWK4g4TFm5yWPD7XurrfyMjLpaby5+eramuxdXaQKy3gycmNISSfUVKYm5uXREbBk5SOJymucHFxAACOVFWKMTOMVleRf3+cRUetZ2jOuruxg4TErKy3mJmcWFqxkZGfZmeqh4ihdHWxoqLGl5imkZKZbG2NPD6PRkiflpePYGGRcXKThIVpzCGAAAAVeklEQVR4nO2da1vbuBKAE0tWlBgQGAhgcEIS5+ZcSbgtFNrtdrunu1Ba/v+POZIdcrNkS3JC6fMwX9pSYvvNjGZGo5GcybzLu7zLu7zLu7zLu7zLu7zL7y/G5I9c2at2fL9Exfc7napXyBsLv/EbyuTJe51Ss39xVYQQAPQigP7LHtauK6Wz8vwv/z5isCfOV0vNewQRQC6xcHZZsEVc+n8QjSu+Z7x86LcQ9qS5amtMEAAkAhYltSln9mO3av4ekOwZe6XGCCAbR/UmpLRshIbXfvmtQ7Kn81o1BGxLGm6O0gXFRukNQ7Ln2uzWACLyuotQUlU2fPNNeh7G12lQPG26KSRAg+pbU6RBH2ezOwSuvvYWIAG6p4p8O4yMr1fJyvhNaUYCht3NN8IY8A0Q0vAtsUIQqbwJxpAPrMY8FwWj4mXuVzPS2xeaAK2DL2RELdP4hYz03mbXXRtfwAiufONXMbIbd+prsc95IWBc/TWmSvnKfRX/iTHNtalYCtlcIDaq5F9fjeyOpSKQx3Pp1IkM2+37+qiIoMPSVvkPo2HntdVIAXs1qPCM2Y9+efbxsudXagjKJwgEXm++phrZCPRdV5qPUI1RHdYHJW/uIfP+wJa3cjQ8ez01Ur7NgYKHsT6WKrUsneEDCK7oPDA/gyzVoSwjAZevFTgM06gOkTQfFdCmw8grDeo2gNBxQK0ye1D/HtpyV8FgXH4VRMPMlFRnEATed9hnTa9TuqxUKqX5C1bHjiSjmz3LmOtGpDHeVLHQGWPdF17Ua0g6LQu0jDUjUsCNmpKFzjGO/u2JrutLfmkYDPLmOi2VfoHeUN6HLokFUKMjQoSSF0HjwhoRKeAZlhwzXME2JGf8a1dkswfU7q0NkQL6aj6GIBjIJIOh81pXOBobsqPbxp65nsHIABXSGPoosF7xq57nVUuVsU1B0X035voDCCYFSFCMvQ1B1bUgUifalc9DGWC/Ov/5stczBZfOecEfvVaN0IAJnVIzPtexUGcNiBSwpRYlil3Jh+hh53LyV7PnVc/OzIxXj3XYFvq0csRAg4phEIzkGKsOHC3HEaMRay+r1yIdg5/V47wFcNzAm0qH534aCVpc7VikGpQOWIsPAkfV5MvzpZ4wFleJSAE7utUYAnURq/HfKcmuLi5SQA9rl0Pdhu59x/HJhd3eyK8G0TDzW0P9TMYayj+FEYhpBn9kKgkJMPqSW4kW6R1ztaI2YBajcvJNqPjBHDmUcCk8cQ0LDFYyFNl0SW82MRHZgdhqDq6vr/v9RqNxjwNJvDTorgCRApaUUpnoY5SS77IsstkTOsunRaSDsJqqqG0hp6J8V0829pLRVkpvYxjUy6RYNSMg2+zIjcM5yceHwnlx03obI5+/1h+EFhyKSxeB9Kp+t0LHHxt8/f71YMBWf8tthUk2aKUaitRGP+sPQkQSRmAfOKyNCLiuzcSlguCgglRCE0bVFEORAnraC9cYDkSzpYmcOZxrY9W1LFIvaA9FOghzNd1Qj5NdqF6qGxHU1FYiVaHanHce0BXVnGZiZleyMo6BbsiggNvx5YS42w5LnapXzsfeobUaJZL2ph6ikd9saFcOqQeA0GG1mXqj4otA71MlS1NBlzkdQpqOfkqXzASCCWvMa/AzN/N+JUvI1J9qIFLADfnAm/QIrvORf5umUvVOJG5jM69D2FqNDbEnAANRYuMrRT+BYPRJWYkUcFdhHTpWXKfvie/Ua69gLJB2IadKmM+lmzPNBPSFCzKhVGD6qIG6m2pKNMzNvRX1ybiVMpVer9oRKrKTTa1GK7uhZqc0UlzrR4pFcYMpOwAQDkS3K8suIIoF/aWkRKrCnRW2Ok3m6xjcCydSXen1fIFYoy0VJa5ShfNiI8HaWiZTzaYc9qilEDFWOAqXBDv/Cm+a0lKt4Za8nRr5wp8ri4VLAhvCOVU3nU9Fn6UJqQq3s2tryENDoU+tFtNEf3Ih7U6pCi/XpUL2JEBY2ijXU4QNmthIKpGqcGO46p7mhUdxmqJ7m7UUiHZDMrGhKvy8MhVi4rJlXVbIZlMpN6xjx4SN+HXD+HuhHTklmrnClxVkw1QsF6L7Qdev9nKmWe5V/Va/DgBLd11LGDZSIKJKQSZgGGZhJaEC23B07Ud01Ss1WEeiBYVrpxf6DTtXGzJKpEb61wqM1IVjXxAXyqU2tDG8FjyLeaWd3qBPhWRC6me2LlLPfO3YCVMmc1aDBNQFcw7pmn5E3MFGsq+hRtpJq0ILjmP5AsY6sJFgVaqrW6HCeDtZiUZu45+0GSJOqOWH8i9wocDfaFdp0edEX5PeSDHs52QAqTVSx8qvqiYs4YvFvabJaQJhvpBu3oTFTjJ6swYEfC1+1PSn1jDRTKmRpvKkllrrRRMC7u9XHc37o08bCWZKjTRNuCckoSazLBWIuJ9oa44U9OfWZiwhC/cjfSMlWUVAhoh5FXHdlXVysRVvpkZ+45O+kWKUGCSi0oc1zk97mjERk52NeMLNLf25L4bJ602cW9Yhb6Fft96OPm/FBX1qpFs17VgBWxqAVF0Ozzs1Nb/o4p+x8cIwN/a095q7Yy1AtshWj/7Q1x2I97uFOMKc/jCU7X3iSJ1j3p4mISZ7cfGCxgrtaAjkI/2ydGBU/WXdvAN9ihuIdBjq1kkJx9KkpQ0i+jd1gxb6KyYi0mG4qxtqYcymn9Jls3npx0SSrhP5tKFbKnKvYwYijYbbmsZB2oJr9ipFJ1y4cFBTBOlxalN1TUJysSuOiEZuS9fRQH5vSb4JZ18ZRlCwUGqiaNTXJcTFbbGrofFes8qGi1zDOBstpiYYEX5SULcjz6Jd0AQHYldjFnb/1iN0r3nX86MLShZf2Rco8iza6THNakSuhmY0uwM9V8rN13xuVxcXMUpY1m43Q3/tirIa6kq39aZOGHK+tB4PkP0ux9+0h8s/0Y34LG8TOlMjv7WtFyxsXsJ2L/iySIQmYxb7yz/qaBO6X7dFzpS6Us3JIbqMXk3clxe1U8+JXEC7oy5LxkJnSgl39KyfV1C6F1qDNVr+3ZITuYCmQ2CE7b0tEeHm7oGeKwXRoeXFlMsifukimrXp92NZV3uicGFu7uoFfOxGCxGtGCtzl5oyvGjmndcv+GFrJ4ZQL+DjbPRicU55OUtvRtPSszSLbAeicEHDoR6hFfWOsVaG0YLOy+gq8pUn7QiKE3QkJtzWmx1y0m4zthFgcdhVnGgSkKYtEn16DcJybDFkwTOVnYvox3UrwkwooSDk05RGLy3lzH7LnOM8Z7Kgw7ETLbLqR8MsS0y3+YSGNiFnHJqjmKkBtuceoPsHJ1FNtTgUS6i3sMbzpXHp37xVV51IwhYfTJNlDTpc8o2BxNV75uJh2b7nPIpusTQUMWFel5CX08RtF5nlNLnRiLPYaKY4HzQbT7inSxgtQ8U8pTU16h4a8coacfmQhKBPYivd06yW8uYWl8LHnK6hdmCdBxjrpWSeZj+G8Jvm6TqcwWSI9i2Sq5fvwGlw08d/U/ZEo6MYQt1CFG+O7/H7RfFkHaZaF/Saale7X25QFBGyiK9dTOTVaarczubQRr2Pf9QF1dMUWzoDwfhASFjY3te8Or/W5g2j65zBYuFZw0GizXtnaRI2JtZwJ4bwSHMXCUZ8w68sn20KWhmvNXLEp56YV2kbP8njzrY48z640hwDov2U7HzauW+NjCtDxxn74sWhtDZK7/FlRzi32NzeedRMCIXrFplyqYZguLkJ2wjCWjeum6GUfkui/TWGcHdHu9UkZu0pU+60GsRCENQuz+KXUasr2K3n/m9nV1DFMCjhg26JK3790B/CbCW5l6i3ihOl0d/CShSrJup37cWsAXeuHOFRdPNSzq5iwyP6Jq4m5rZ0k5osK7gJDNAbJzSbTgFTnBEzT7gvXMk38lt7h/quzP3Cveqlcy/X6laur2QjEgv4wqo+TdsOUhyNz+tKLLcdyQ4GL7ua9nlyIQz4bHVt+0A3XGRnGeecdBxRq/Oy+FDqhSbJ4n4VBvwg5O98TfFNWvbSeOs6wi2HS3LpwKbfXsU2D/Q3DYfCjImGC805cCj2VW/xsYU71RalPHYu6JdjpNkxMyX8Jizqh+HiW6q5iz1/eN4lp9LLlRZ4SfpSbCeZCMb7wmAROtP9dLvWyKz/nlsm5Ig/+qM/DTSpEcmF2JWG1baD7+nG+7QVwf9DxokapZFTn3dQ45Rj0f2fcHbIhDnT/6U4uYzJpFe/B4Ub1GZSrthOdlHTZppDm7LBMBQ2KmRCV6Of1UxvgktGecjr/F2Uap9OOirLT6PbHRwKzh7GOJrQ1ezrThFnYsERspN6Mf0ahJB3GEGqCRT5fhTbfclKpgdfUpkJe5caQFZCQ7TZHVG+AT9d/ZjCiorBMIwhZANRf3qBbQCH15VuqYRiI703gACOWqJTa+JX5uIlYRiGA/FYu1YDvpRC2yxBsY0a/hgCTOJyAe2dXVnrdj92GIYR8UgrXmCEmi+DquwIe9rLrSFk3yAm7ZgZsfYKsP2VDsP43QgsIv6jES/IfGPlNRBcvtdEYDKLxwTBe1HlQ9vZoG/xwzATRsRj9cQNDOcU4glUaMw3m4ZfS1ugR82VC3y1H5N2T56CxgtlM8WLp5b0AXeoV0k00hHBsZGaq0/uw1FMUjohZPFC0Ztai8XSMj+b8flnQkDuIbyanQoSRhqcGHFwqHRMm4UWY1/X4Zme8MB6wN2IorWLlHnS+FgRIDIzVama4uUdhPec/qG43cuAFzu19q4V/0k20nCt++A/BTNdbiss886EEC4mBlfguFSd7BST42QjDcx0d2f/VtqXRbZz+dFOyrgFYfZkNie70VigsW9YuE8y0knQl/Y1xYijqHDymYRFT8BxqOp7d3DxW1K4nxAGIVFygoFJBKfBWaNJWLe2stEvXj1ekO/7rClR4mAMc5NOoSTnwZzGe8xZLE06xpOzrNNRTmvQf0fCBYtFYSHx6CS2L+1FeMsxnITGS4pubrQvqqeqQ+v2UMbPBISBr/kqMw4WVWh4ndb1FUcfiX140c7vTFl1hoP+SZpWzD1poESJO2D0ckH2zrE2AQC4FuckiMSudM7uTEPRmSqo8EWJEiuJk/60st8fAVAk4THxnE29yVuLOW1jiju7mArl/EyAyALGSfIaDWv2Kpe+IOjOPQ1nS0zyJi3O16I2RwxUmHScwhyhWdg92H9IdKewWvoCwZI5cwiTDY5DqLZ7B/2nosJwrfToOHmSBpbx+ITJ6uBZqQoheVRS4ctI1CtJcdSR8LIRvqdR2X+I3SfqSNUOv2Tu9FhrLZFTR2xqRAul/YfuB0UVvijxP53jvDm9Q4lTITs6DVbp38PZkyDnVjuElk6ijg4/aKyso2ga3UvKaTjfisr+Q/SPQiycEgbZ6YnGZj2OPjIX8QORdxyDwqkR5Psxy0iTp03LiHSKcagyFZ6INYp+lwnvCHA5h33LbwvCxSe1SDElDCKGRhcYbxesaD9p+Ii8T8gfsVJ8ODyIXY0RIxaoszlRn2vz2hSrcefLAk7Zw5ROvMnjiWqkmCKyig21U9WhyBuImUuxnZIs5+HOZKeHGD9puJkJIXU21E5/qNb4sc07r60v8hzY4a2xSe8pQXfUzSie5T2HGNipctznnzEr6EEg/BPbZC3HvTnWtdFM8BYWZqdPqq8S4e5dZ+8Z5Ty1a3FXLmRrGOSWDkJNGw0QQ3/6rDgUub6RSgktmx6GY/5CY0POhWPydEzTtZz+G5/C5O34QTEq8jv3aSZ27cx9WdiGSLC8Jrl3DQeDUNtGQ8R8YZsOxRvF7I2zZzKUXpNAELzdiXV8Cxun+3L3Qw/HWrF+gdDMsaF4+qgW+Dm1s6lUu4Mv43G/GT2Ad/YrcqezFz8EgzDti9fCkHGq2Mej/WrOQOQWnuzvJ2zOpBkoIoiKDjXVuVhya9zk9jRMuFMCvkTF4ye1uSJvKUJS5GaGZHSa2su8EE68zbNSiVbvDMVAYrP0KeDV+fHRzq5+JFxANGngV0a0RK37SZJY8ggAR0/Uy+ym9TIzxMChntwpIdp1rZtLDcIQkLrRVb3zmOU2DFFNi5wTypJF6v30E8D0bpSDWFTxqIC/AWNlgCvTYIi4GSIq7dsBNcXaSUkG0L49X7UGZ4j7J0+3KtkNGCqdK1yRASx+XwvgDPH8USVHtZF80Mg1JJwMLt6crgdwhnh6ozKZwrAp+ST+SGIGg9HD6fGaACdBg2Y3pw8quwQxGEptzLuWeVEQIXcnNNCv2MksI9I0/HmktC6U/KYEowVlqkHu7dPJIctk1gQYINIc9ej45OlRKUu1YT9urpFrYZkOKIxuzulsYm9lmQwfMV/Y3aNR4/TBVYmM2AUXJcEbE6oDG8hci+Cf1MccBMn22gBZGs4mU8zfPKtt+MQEoEZ32VpznWYdSnWw4eLjU+Bj1gw4QWSD8eT8RnFbMuvkL46bXb/qeV71zL+8rgOI5EY0cR9O2RBckxNdYqT+JrTU56HyhlNKyV785DgQgpeXP0l8ClEFMgtdo49ZRMwXmKUen57/sFf1ttk4PjtLRyALEmu30CnixFKZGr8r5eI6QuybiQKZhb4KYICYYz51//jk9G6o/WZrGbGKj88TBb6OhU4ZzUCNzKme/8ym2P+dxDe8O6UulCnwtSx0isjUODHV84eRUnSU57v9eR660ECBrwqYCdW4MTHV84erVY9HTKZ8rzoCFxCpU6WmOmH8eSvt/KX47Mc7xhca6C9Q4JQxMNWQ8e67vaL3XFs2uXme8P0aA51jNOcZn3+MiqkViW10+/B0OuX7NQa6yLgZMDKfQxV5k00DadnFqw9MfceHR2+DLxOYasC4d3AUKPL8581V0ZZqE19SHrHd4Ye7c8a3T/1LwPcGADMhI7XV3T1qrIcB5N2HW+wSBUps2W728cdzgEfNk/rPkO9Xs72IwXwOjR2BIg9PGOTTzw+3lmsnY2KLuIzu7un89AVve+sX+k+RBLGDKpKNyECTjPLu4eaWoCIFpaR4npX+yyLULIso+/jhJ9XdBI9ZJ1Xf2+NjEhjr5gaF3JtSUszz57ufP24eb0dZuzgTO3t1+/3mx0+quQAuoDuYw3t7fEyMBciQkmEyTipPT8/Pd0yen5+ewh+dBnAB3QveW/EuIplAFkJKqkuKeXhMQUPUOWE/Ymz7R1R3Ad3G28cLJYDMTyi39xgnA2Vy+CLsH0dHTHE7e3vbE7q3a5wcmVJSTMZJQSnpguwxNMrG4Bjd74Q3kYDSzFNOBkpJqeyGEvx9Y6MwYWNwvxvdTEJORprPUdlkwv5C/23+7mwLYvDkVz/Uu7zLu7zLu7zLi/wfwMshDtgB1UAAAAAASUVORK5CYII=;" vertex="1" parent="1">
          <mxGeometry x="484.76" y="625.5" width="72.5" height="72.5" as="geometry" />
        </mxCell>
        <mxCell id="iPtHKylNL2sxlNdy4_Nk-62" value="WireGuard UI" style="text;html=1;align=center;verticalAlign=middle;whiteSpace=wrap;rounded=0;fontColor=#000000;" vertex="1" parent="1">
          <mxGeometry x="484.76" y="698" width="70" height="30" as="geometry" />
        </mxCell>
        <mxCell id="iPtHKylNL2sxlNdy4_Nk-63" value="" style="endArrow=classic;html=1;rounded=0;exitX=0.5;exitY=1;exitDx=0;exitDy=0;entryX=0.5;entryY=0;entryDx=0;entryDy=0;" edge="1" parent="1" source="iPtHKylNL2sxlNdy4_Nk-8" target="iPtHKylNL2sxlNdy4_Nk-60">
          <mxGeometry width="50" height="50" relative="1" as="geometry">
            <mxPoint x="535" y="877.5" as="sourcePoint" />
            <mxPoint x="585" y="827.5" as="targetPoint" />
          </mxGeometry>
        </mxCell>
        <mxCell id="iPtHKylNL2sxlNdy4_Nk-66" value="" style="endArrow=classic;html=1;rounded=0;entryX=0.5;entryY=0;entryDx=0;entryDy=0;exitX=0.489;exitY=1;exitDx=0;exitDy=0;exitPerimeter=0;" edge="1" parent="1" source="iPtHKylNL2sxlNdy4_Nk-3" target="iPtHKylNL2sxlNdy4_Nk-8">
          <mxGeometry width="50" height="50" relative="1" as="geometry">
            <mxPoint x="600" y="350" as="sourcePoint" />
            <mxPoint x="290" y="207.5" as="targetPoint" />
          </mxGeometry>
        </mxCell>
        <mxCell id="iPtHKylNL2sxlNdy4_Nk-70" value="Virtual Machine" style="text;html=1;align=center;verticalAlign=middle;whiteSpace=wrap;rounded=0;" vertex="1" parent="1">
          <mxGeometry x="573.25" y="522" width="86.75" height="30" as="geometry" />
        </mxCell>
        <mxCell id="iPtHKylNL2sxlNdy4_Nk-72" value="Reverse Proxies" style="text;html=1;align=center;verticalAlign=middle;whiteSpace=wrap;rounded=0;" vertex="1" parent="1">
          <mxGeometry x="564.75" y="400" width="100" height="30" as="geometry" />
        </mxCell>
        <mxCell id="iPtHKylNL2sxlNdy4_Nk-75" value="" style="endArrow=classic;startArrow=classic;html=1;rounded=0;entryX=0;entryY=0.5;entryDx=0;entryDy=0;exitX=1;exitY=0.5;exitDx=0;exitDy=0;" edge="1" parent="1" source="iPtHKylNL2sxlNdy4_Nk-60" target="iPtHKylNL2sxlNdy4_Nk-26">
          <mxGeometry width="50" height="50" relative="1" as="geometry">
            <mxPoint x="401.51" y="602.5" as="sourcePoint" />
            <mxPoint x="451.51" y="552.5" as="targetPoint" />
          </mxGeometry>
        </mxCell>
        <mxCell id="iPtHKylNL2sxlNdy4_Nk-78" value="" style="shape=image;html=1;verticalAlign=top;verticalLabelPosition=bottom;labelBackgroundColor=#ffffff;imageAspect=0;aspect=fixed;image=https://cdn2.iconfinder.com/data/icons/circle-icons-1/64/brightness-128.png" vertex="1" parent="1">
          <mxGeometry x="920.25" y="918.75" width="78" height="78" as="geometry" />
        </mxCell>
        <mxCell id="iPtHKylNL2sxlNdy4_Nk-79" value="" style="endArrow=classic;html=1;rounded=0;exitX=1;exitY=0.5;exitDx=0;exitDy=0;" edge="1" parent="1" source="iPtHKylNL2sxlNdy4_Nk-33" target="iPtHKylNL2sxlNdy4_Nk-78">
          <mxGeometry width="50" height="50" relative="1" as="geometry">
            <mxPoint x="400" y="620" as="sourcePoint" />
            <mxPoint x="450" y="570" as="targetPoint" />
          </mxGeometry>
        </mxCell>
      </root>
    </mxGraphModel>
  </diagram>
</mxfile>
